%TF.GenerationSoftware,KiCad,Pcbnew,7.0.7*%
%TF.CreationDate,2024-09-29T13:33:55+02:00*%
%TF.ProjectId,DC_step_down_24V-3_3V,44435f73-7465-4705-9f64-6f776e5f3234,rev?*%
%TF.SameCoordinates,Original*%
%TF.FileFunction,Copper,L1,Top*%
%TF.FilePolarity,Positive*%
%FSLAX46Y46*%
G04 Gerber Fmt 4.6, Leading zero omitted, Abs format (unit mm)*
G04 Created by KiCad (PCBNEW 7.0.7) date 2024-09-29 13:33:55*
%MOMM*%
%LPD*%
G01*
G04 APERTURE LIST*
G04 Aperture macros list*
%AMRoundRect*
0 Rectangle with rounded corners*
0 $1 Rounding radius*
0 $2 $3 $4 $5 $6 $7 $8 $9 X,Y pos of 4 corners*
0 Add a 4 corners polygon primitive as box body*
4,1,4,$2,$3,$4,$5,$6,$7,$8,$9,$2,$3,0*
0 Add four circle primitives for the rounded corners*
1,1,$1+$1,$2,$3*
1,1,$1+$1,$4,$5*
1,1,$1+$1,$6,$7*
1,1,$1+$1,$8,$9*
0 Add four rect primitives between the rounded corners*
20,1,$1+$1,$2,$3,$4,$5,0*
20,1,$1+$1,$4,$5,$6,$7,0*
20,1,$1+$1,$6,$7,$8,$9,0*
20,1,$1+$1,$8,$9,$2,$3,0*%
G04 Aperture macros list end*
%ADD10C,0.100000*%
%TA.AperFunction,NonConductor*%
%ADD11C,0.100000*%
%TD*%
%ADD12C,0.200000*%
%TA.AperFunction,NonConductor*%
%ADD13C,0.200000*%
%TD*%
%TA.AperFunction,SMDPad,CuDef*%
%ADD14RoundRect,0.250000X0.475000X-0.337500X0.475000X0.337500X-0.475000X0.337500X-0.475000X-0.337500X0*%
%TD*%
%TA.AperFunction,SMDPad,CuDef*%
%ADD15R,3.302000X1.600200*%
%TD*%
%TA.AperFunction,SMDPad,CuDef*%
%ADD16RoundRect,0.250000X-0.475000X0.337500X-0.475000X-0.337500X0.475000X-0.337500X0.475000X0.337500X0*%
%TD*%
%TA.AperFunction,SMDPad,CuDef*%
%ADD17RoundRect,0.250000X-0.450000X0.350000X-0.450000X-0.350000X0.450000X-0.350000X0.450000X0.350000X0*%
%TD*%
%TA.AperFunction,SMDPad,CuDef*%
%ADD18RoundRect,0.250000X-0.337500X-0.475000X0.337500X-0.475000X0.337500X0.475000X-0.337500X0.475000X0*%
%TD*%
%TA.AperFunction,SMDPad,CuDef*%
%ADD19RoundRect,0.250000X-1.000000X1.400000X-1.000000X-1.400000X1.000000X-1.400000X1.000000X1.400000X0*%
%TD*%
%TA.AperFunction,SMDPad,CuDef*%
%ADD20RoundRect,0.250000X0.450000X-0.350000X0.450000X0.350000X-0.450000X0.350000X-0.450000X-0.350000X0*%
%TD*%
%TA.AperFunction,ComponentPad*%
%ADD21C,3.400000*%
%TD*%
%TA.AperFunction,ComponentPad*%
%ADD22R,2.200000X2.200000*%
%TD*%
%TA.AperFunction,ComponentPad*%
%ADD23C,2.200000*%
%TD*%
%TA.AperFunction,SMDPad,CuDef*%
%ADD24RoundRect,0.250000X0.337500X0.475000X-0.337500X0.475000X-0.337500X-0.475000X0.337500X-0.475000X0*%
%TD*%
%TA.AperFunction,SMDPad,CuDef*%
%ADD25RoundRect,0.075000X-0.910000X-0.225000X0.910000X-0.225000X0.910000X0.225000X-0.910000X0.225000X0*%
%TD*%
%TA.AperFunction,ViaPad*%
%ADD26C,0.800000*%
%TD*%
%TA.AperFunction,Conductor*%
%ADD27C,0.250000*%
%TD*%
G04 APERTURE END LIST*
D10*
D11*
X172075312Y-94872419D02*
X171741979Y-94396228D01*
X171503884Y-94872419D02*
X171503884Y-93872419D01*
X171503884Y-93872419D02*
X171884836Y-93872419D01*
X171884836Y-93872419D02*
X171980074Y-93920038D01*
X171980074Y-93920038D02*
X172027693Y-93967657D01*
X172027693Y-93967657D02*
X172075312Y-94062895D01*
X172075312Y-94062895D02*
X172075312Y-94205752D01*
X172075312Y-94205752D02*
X172027693Y-94300990D01*
X172027693Y-94300990D02*
X171980074Y-94348609D01*
X171980074Y-94348609D02*
X171884836Y-94396228D01*
X171884836Y-94396228D02*
X171503884Y-94396228D01*
X172932455Y-94872419D02*
X172932455Y-94348609D01*
X172932455Y-94348609D02*
X172884836Y-94253371D01*
X172884836Y-94253371D02*
X172789598Y-94205752D01*
X172789598Y-94205752D02*
X172599122Y-94205752D01*
X172599122Y-94205752D02*
X172503884Y-94253371D01*
X172932455Y-94824800D02*
X172837217Y-94872419D01*
X172837217Y-94872419D02*
X172599122Y-94872419D01*
X172599122Y-94872419D02*
X172503884Y-94824800D01*
X172503884Y-94824800D02*
X172456265Y-94729561D01*
X172456265Y-94729561D02*
X172456265Y-94634323D01*
X172456265Y-94634323D02*
X172503884Y-94539085D01*
X172503884Y-94539085D02*
X172599122Y-94491466D01*
X172599122Y-94491466D02*
X172837217Y-94491466D01*
X172837217Y-94491466D02*
X172932455Y-94443847D01*
X173837217Y-94872419D02*
X173837217Y-93872419D01*
X173837217Y-94824800D02*
X173741979Y-94872419D01*
X173741979Y-94872419D02*
X173551503Y-94872419D01*
X173551503Y-94872419D02*
X173456265Y-94824800D01*
X173456265Y-94824800D02*
X173408646Y-94777180D01*
X173408646Y-94777180D02*
X173361027Y-94681942D01*
X173361027Y-94681942D02*
X173361027Y-94396228D01*
X173361027Y-94396228D02*
X173408646Y-94300990D01*
X173408646Y-94300990D02*
X173456265Y-94253371D01*
X173456265Y-94253371D02*
X173551503Y-94205752D01*
X173551503Y-94205752D02*
X173741979Y-94205752D01*
X173741979Y-94205752D02*
X173837217Y-94253371D01*
X174694360Y-94824800D02*
X174599122Y-94872419D01*
X174599122Y-94872419D02*
X174408646Y-94872419D01*
X174408646Y-94872419D02*
X174313408Y-94824800D01*
X174313408Y-94824800D02*
X174265789Y-94729561D01*
X174265789Y-94729561D02*
X174265789Y-94348609D01*
X174265789Y-94348609D02*
X174313408Y-94253371D01*
X174313408Y-94253371D02*
X174408646Y-94205752D01*
X174408646Y-94205752D02*
X174599122Y-94205752D01*
X174599122Y-94205752D02*
X174694360Y-94253371D01*
X174694360Y-94253371D02*
X174741979Y-94348609D01*
X174741979Y-94348609D02*
X174741979Y-94443847D01*
X174741979Y-94443847D02*
X174265789Y-94539085D01*
X175170551Y-94872419D02*
X175170551Y-93872419D01*
X175265789Y-94491466D02*
X175551503Y-94872419D01*
X175551503Y-94205752D02*
X175170551Y-94586704D01*
X176694361Y-94824800D02*
X176837218Y-94872419D01*
X176837218Y-94872419D02*
X177075313Y-94872419D01*
X177075313Y-94872419D02*
X177170551Y-94824800D01*
X177170551Y-94824800D02*
X177218170Y-94777180D01*
X177218170Y-94777180D02*
X177265789Y-94681942D01*
X177265789Y-94681942D02*
X177265789Y-94586704D01*
X177265789Y-94586704D02*
X177218170Y-94491466D01*
X177218170Y-94491466D02*
X177170551Y-94443847D01*
X177170551Y-94443847D02*
X177075313Y-94396228D01*
X177075313Y-94396228D02*
X176884837Y-94348609D01*
X176884837Y-94348609D02*
X176789599Y-94300990D01*
X176789599Y-94300990D02*
X176741980Y-94253371D01*
X176741980Y-94253371D02*
X176694361Y-94158133D01*
X176694361Y-94158133D02*
X176694361Y-94062895D01*
X176694361Y-94062895D02*
X176741980Y-93967657D01*
X176741980Y-93967657D02*
X176789599Y-93920038D01*
X176789599Y-93920038D02*
X176884837Y-93872419D01*
X176884837Y-93872419D02*
X177122932Y-93872419D01*
X177122932Y-93872419D02*
X177265789Y-93920038D01*
X177551504Y-94205752D02*
X177932456Y-94205752D01*
X177694361Y-93872419D02*
X177694361Y-94729561D01*
X177694361Y-94729561D02*
X177741980Y-94824800D01*
X177741980Y-94824800D02*
X177837218Y-94872419D01*
X177837218Y-94872419D02*
X177932456Y-94872419D01*
X178646742Y-94824800D02*
X178551504Y-94872419D01*
X178551504Y-94872419D02*
X178361028Y-94872419D01*
X178361028Y-94872419D02*
X178265790Y-94824800D01*
X178265790Y-94824800D02*
X178218171Y-94729561D01*
X178218171Y-94729561D02*
X178218171Y-94348609D01*
X178218171Y-94348609D02*
X178265790Y-94253371D01*
X178265790Y-94253371D02*
X178361028Y-94205752D01*
X178361028Y-94205752D02*
X178551504Y-94205752D01*
X178551504Y-94205752D02*
X178646742Y-94253371D01*
X178646742Y-94253371D02*
X178694361Y-94348609D01*
X178694361Y-94348609D02*
X178694361Y-94443847D01*
X178694361Y-94443847D02*
X178218171Y-94539085D01*
X179122933Y-94872419D02*
X179122933Y-94205752D01*
X179122933Y-94396228D02*
X179170552Y-94300990D01*
X179170552Y-94300990D02*
X179218171Y-94253371D01*
X179218171Y-94253371D02*
X179313409Y-94205752D01*
X179313409Y-94205752D02*
X179408647Y-94205752D01*
X179741981Y-94872419D02*
X179741981Y-93872419D01*
X179741981Y-94253371D02*
X179837219Y-94205752D01*
X179837219Y-94205752D02*
X180027695Y-94205752D01*
X180027695Y-94205752D02*
X180122933Y-94253371D01*
X180122933Y-94253371D02*
X180170552Y-94300990D01*
X180170552Y-94300990D02*
X180218171Y-94396228D01*
X180218171Y-94396228D02*
X180218171Y-94681942D01*
X180218171Y-94681942D02*
X180170552Y-94777180D01*
X180170552Y-94777180D02*
X180122933Y-94824800D01*
X180122933Y-94824800D02*
X180027695Y-94872419D01*
X180027695Y-94872419D02*
X179837219Y-94872419D01*
X179837219Y-94872419D02*
X179741981Y-94824800D01*
X181075314Y-94872419D02*
X181075314Y-94348609D01*
X181075314Y-94348609D02*
X181027695Y-94253371D01*
X181027695Y-94253371D02*
X180932457Y-94205752D01*
X180932457Y-94205752D02*
X180741981Y-94205752D01*
X180741981Y-94205752D02*
X180646743Y-94253371D01*
X181075314Y-94824800D02*
X180980076Y-94872419D01*
X180980076Y-94872419D02*
X180741981Y-94872419D01*
X180741981Y-94872419D02*
X180646743Y-94824800D01*
X180646743Y-94824800D02*
X180599124Y-94729561D01*
X180599124Y-94729561D02*
X180599124Y-94634323D01*
X180599124Y-94634323D02*
X180646743Y-94539085D01*
X180646743Y-94539085D02*
X180741981Y-94491466D01*
X180741981Y-94491466D02*
X180980076Y-94491466D01*
X180980076Y-94491466D02*
X181075314Y-94443847D01*
D12*
D13*
X163503006Y-90842742D02*
X164303006Y-90842742D01*
X164303006Y-90842742D02*
X163788720Y-92042742D01*
X164760149Y-91585600D02*
X165674435Y-91585600D01*
X166188720Y-90957028D02*
X166245863Y-90899885D01*
X166245863Y-90899885D02*
X166360149Y-90842742D01*
X166360149Y-90842742D02*
X166645863Y-90842742D01*
X166645863Y-90842742D02*
X166760149Y-90899885D01*
X166760149Y-90899885D02*
X166817291Y-90957028D01*
X166817291Y-90957028D02*
X166874434Y-91071314D01*
X166874434Y-91071314D02*
X166874434Y-91185600D01*
X166874434Y-91185600D02*
X166817291Y-91357028D01*
X166817291Y-91357028D02*
X166131577Y-92042742D01*
X166131577Y-92042742D02*
X166874434Y-92042742D01*
X167560148Y-91357028D02*
X167445863Y-91299885D01*
X167445863Y-91299885D02*
X167388720Y-91242742D01*
X167388720Y-91242742D02*
X167331577Y-91128457D01*
X167331577Y-91128457D02*
X167331577Y-91071314D01*
X167331577Y-91071314D02*
X167388720Y-90957028D01*
X167388720Y-90957028D02*
X167445863Y-90899885D01*
X167445863Y-90899885D02*
X167560148Y-90842742D01*
X167560148Y-90842742D02*
X167788720Y-90842742D01*
X167788720Y-90842742D02*
X167903006Y-90899885D01*
X167903006Y-90899885D02*
X167960148Y-90957028D01*
X167960148Y-90957028D02*
X168017291Y-91071314D01*
X168017291Y-91071314D02*
X168017291Y-91128457D01*
X168017291Y-91128457D02*
X167960148Y-91242742D01*
X167960148Y-91242742D02*
X167903006Y-91299885D01*
X167903006Y-91299885D02*
X167788720Y-91357028D01*
X167788720Y-91357028D02*
X167560148Y-91357028D01*
X167560148Y-91357028D02*
X167445863Y-91414171D01*
X167445863Y-91414171D02*
X167388720Y-91471314D01*
X167388720Y-91471314D02*
X167331577Y-91585600D01*
X167331577Y-91585600D02*
X167331577Y-91814171D01*
X167331577Y-91814171D02*
X167388720Y-91928457D01*
X167388720Y-91928457D02*
X167445863Y-91985600D01*
X167445863Y-91985600D02*
X167560148Y-92042742D01*
X167560148Y-92042742D02*
X167788720Y-92042742D01*
X167788720Y-92042742D02*
X167903006Y-91985600D01*
X167903006Y-91985600D02*
X167960148Y-91928457D01*
X167960148Y-91928457D02*
X168017291Y-91814171D01*
X168017291Y-91814171D02*
X168017291Y-91585600D01*
X168017291Y-91585600D02*
X167960148Y-91471314D01*
X167960148Y-91471314D02*
X167903006Y-91414171D01*
X167903006Y-91414171D02*
X167788720Y-91357028D01*
X168360148Y-90842742D02*
X168760148Y-92042742D01*
X168760148Y-92042742D02*
X169160148Y-90842742D01*
X169560148Y-92042742D02*
X169560148Y-90842742D01*
X169560148Y-90842742D02*
X169845862Y-90842742D01*
X169845862Y-90842742D02*
X170017291Y-90899885D01*
X170017291Y-90899885D02*
X170131576Y-91014171D01*
X170131576Y-91014171D02*
X170188719Y-91128457D01*
X170188719Y-91128457D02*
X170245862Y-91357028D01*
X170245862Y-91357028D02*
X170245862Y-91528457D01*
X170245862Y-91528457D02*
X170188719Y-91757028D01*
X170188719Y-91757028D02*
X170131576Y-91871314D01*
X170131576Y-91871314D02*
X170017291Y-91985600D01*
X170017291Y-91985600D02*
X169845862Y-92042742D01*
X169845862Y-92042742D02*
X169560148Y-92042742D01*
X171445862Y-91928457D02*
X171388719Y-91985600D01*
X171388719Y-91985600D02*
X171217291Y-92042742D01*
X171217291Y-92042742D02*
X171103005Y-92042742D01*
X171103005Y-92042742D02*
X170931576Y-91985600D01*
X170931576Y-91985600D02*
X170817291Y-91871314D01*
X170817291Y-91871314D02*
X170760148Y-91757028D01*
X170760148Y-91757028D02*
X170703005Y-91528457D01*
X170703005Y-91528457D02*
X170703005Y-91357028D01*
X170703005Y-91357028D02*
X170760148Y-91128457D01*
X170760148Y-91128457D02*
X170817291Y-91014171D01*
X170817291Y-91014171D02*
X170931576Y-90899885D01*
X170931576Y-90899885D02*
X171103005Y-90842742D01*
X171103005Y-90842742D02*
X171217291Y-90842742D01*
X171217291Y-90842742D02*
X171388719Y-90899885D01*
X171388719Y-90899885D02*
X171445862Y-90957028D01*
X172703005Y-91242742D02*
X173160148Y-91242742D01*
X172874434Y-90842742D02*
X172874434Y-91871314D01*
X172874434Y-91871314D02*
X172931577Y-91985600D01*
X172931577Y-91985600D02*
X173045862Y-92042742D01*
X173045862Y-92042742D02*
X173160148Y-92042742D01*
X173731576Y-92042742D02*
X173617291Y-91985600D01*
X173617291Y-91985600D02*
X173560148Y-91928457D01*
X173560148Y-91928457D02*
X173503005Y-91814171D01*
X173503005Y-91814171D02*
X173503005Y-91471314D01*
X173503005Y-91471314D02*
X173560148Y-91357028D01*
X173560148Y-91357028D02*
X173617291Y-91299885D01*
X173617291Y-91299885D02*
X173731576Y-91242742D01*
X173731576Y-91242742D02*
X173903005Y-91242742D01*
X173903005Y-91242742D02*
X174017291Y-91299885D01*
X174017291Y-91299885D02*
X174074434Y-91357028D01*
X174074434Y-91357028D02*
X174131576Y-91471314D01*
X174131576Y-91471314D02*
X174131576Y-91814171D01*
X174131576Y-91814171D02*
X174074434Y-91928457D01*
X174074434Y-91928457D02*
X174017291Y-91985600D01*
X174017291Y-91985600D02*
X173903005Y-92042742D01*
X173903005Y-92042742D02*
X173731576Y-92042742D01*
X175445862Y-90842742D02*
X176188719Y-90842742D01*
X176188719Y-90842742D02*
X175788719Y-91299885D01*
X175788719Y-91299885D02*
X175960148Y-91299885D01*
X175960148Y-91299885D02*
X176074434Y-91357028D01*
X176074434Y-91357028D02*
X176131576Y-91414171D01*
X176131576Y-91414171D02*
X176188719Y-91528457D01*
X176188719Y-91528457D02*
X176188719Y-91814171D01*
X176188719Y-91814171D02*
X176131576Y-91928457D01*
X176131576Y-91928457D02*
X176074434Y-91985600D01*
X176074434Y-91985600D02*
X175960148Y-92042742D01*
X175960148Y-92042742D02*
X175617291Y-92042742D01*
X175617291Y-92042742D02*
X175503005Y-91985600D01*
X175503005Y-91985600D02*
X175445862Y-91928457D01*
X176703005Y-91928457D02*
X176760148Y-91985600D01*
X176760148Y-91985600D02*
X176703005Y-92042742D01*
X176703005Y-92042742D02*
X176645862Y-91985600D01*
X176645862Y-91985600D02*
X176703005Y-91928457D01*
X176703005Y-91928457D02*
X176703005Y-92042742D01*
X177160148Y-90842742D02*
X177903005Y-90842742D01*
X177903005Y-90842742D02*
X177503005Y-91299885D01*
X177503005Y-91299885D02*
X177674434Y-91299885D01*
X177674434Y-91299885D02*
X177788720Y-91357028D01*
X177788720Y-91357028D02*
X177845862Y-91414171D01*
X177845862Y-91414171D02*
X177903005Y-91528457D01*
X177903005Y-91528457D02*
X177903005Y-91814171D01*
X177903005Y-91814171D02*
X177845862Y-91928457D01*
X177845862Y-91928457D02*
X177788720Y-91985600D01*
X177788720Y-91985600D02*
X177674434Y-92042742D01*
X177674434Y-92042742D02*
X177331577Y-92042742D01*
X177331577Y-92042742D02*
X177217291Y-91985600D01*
X177217291Y-91985600D02*
X177160148Y-91928457D01*
X178245862Y-90842742D02*
X178645862Y-92042742D01*
X178645862Y-92042742D02*
X179045862Y-90842742D01*
X179445862Y-92042742D02*
X179445862Y-90842742D01*
X179445862Y-90842742D02*
X179731576Y-90842742D01*
X179731576Y-90842742D02*
X179903005Y-90899885D01*
X179903005Y-90899885D02*
X180017290Y-91014171D01*
X180017290Y-91014171D02*
X180074433Y-91128457D01*
X180074433Y-91128457D02*
X180131576Y-91357028D01*
X180131576Y-91357028D02*
X180131576Y-91528457D01*
X180131576Y-91528457D02*
X180074433Y-91757028D01*
X180074433Y-91757028D02*
X180017290Y-91871314D01*
X180017290Y-91871314D02*
X179903005Y-91985600D01*
X179903005Y-91985600D02*
X179731576Y-92042742D01*
X179731576Y-92042742D02*
X179445862Y-92042742D01*
X181331576Y-91928457D02*
X181274433Y-91985600D01*
X181274433Y-91985600D02*
X181103005Y-92042742D01*
X181103005Y-92042742D02*
X180988719Y-92042742D01*
X180988719Y-92042742D02*
X180817290Y-91985600D01*
X180817290Y-91985600D02*
X180703005Y-91871314D01*
X180703005Y-91871314D02*
X180645862Y-91757028D01*
X180645862Y-91757028D02*
X180588719Y-91528457D01*
X180588719Y-91528457D02*
X180588719Y-91357028D01*
X180588719Y-91357028D02*
X180645862Y-91128457D01*
X180645862Y-91128457D02*
X180703005Y-91014171D01*
X180703005Y-91014171D02*
X180817290Y-90899885D01*
X180817290Y-90899885D02*
X180988719Y-90842742D01*
X180988719Y-90842742D02*
X181103005Y-90842742D01*
X181103005Y-90842742D02*
X181274433Y-90899885D01*
X181274433Y-90899885D02*
X181331576Y-90957028D01*
D14*
%TO.P,C1,1*%
%TO.N,+24V*%
X138600000Y-85837500D03*
%TO.P,C1,2*%
%TO.N,GND*%
X138600000Y-83762500D03*
%TD*%
D15*
%TO.P,L1,1,1*%
%TO.N,Net-(D1-K)*%
X162800000Y-83445000D03*
%TO.P,L1,2,2*%
%TO.N,+3V3*%
X162800000Y-74555000D03*
%TD*%
D16*
%TO.P,C5,1*%
%TO.N,Net-(D1-K)*%
X155600000Y-81762500D03*
%TO.P,C5,2*%
%TO.N,Net-(U1-BOOT)*%
X155600000Y-83837500D03*
%TD*%
D17*
%TO.P,R1,1*%
%TO.N,+24V*%
X143400000Y-88200000D03*
%TO.P,R1,2*%
%TO.N,Net-(U1-EN)*%
X143400000Y-90200000D03*
%TD*%
D16*
%TO.P,C4,1*%
%TO.N,Net-(U1-SS)*%
X145800000Y-92362500D03*
%TO.P,C4,2*%
%TO.N,GND*%
X145800000Y-94437500D03*
%TD*%
D18*
%TO.P,C8,1*%
%TO.N,Net-(U1-COMP)*%
X155562500Y-91000000D03*
%TO.P,C8,2*%
%TO.N,Net-(C8-Pad2)*%
X157637500Y-91000000D03*
%TD*%
D19*
%TO.P,D1,1,K*%
%TO.N,Net-(D1-K)*%
X150000000Y-77800000D03*
%TO.P,D1,2,A*%
%TO.N,GND*%
X143200000Y-77800000D03*
%TD*%
D20*
%TO.P,R5,2*%
%TO.N,GND*%
X161200000Y-86400000D03*
%TO.P,R5,1*%
%TO.N,Net-(U1-VSENSE)*%
X161200000Y-88400000D03*
%TD*%
D14*
%TO.P,C9,1*%
%TO.N,Net-(U1-COMP)*%
X155600000Y-88437500D03*
%TO.P,C9,2*%
%TO.N,GND*%
X155600000Y-86362500D03*
%TD*%
D21*
%TO.P,TP1_GND1,1,1*%
%TO.N,GND*%
X134400000Y-82600000D03*
%TD*%
D14*
%TO.P,C3,1*%
%TO.N,+24V*%
X143400000Y-85837500D03*
%TO.P,C3,2*%
%TO.N,GND*%
X143400000Y-83762500D03*
%TD*%
%TO.P,C2,1*%
%TO.N,+24V*%
X141000000Y-85837500D03*
%TO.P,C2,2*%
%TO.N,GND*%
X141000000Y-83762500D03*
%TD*%
D21*
%TO.P,TP3_GND1,1,1*%
%TO.N,GND*%
X173600000Y-84600000D03*
%TD*%
D22*
%TO.P,J2,1,Pin_1*%
%TO.N,GND*%
X128400000Y-83330000D03*
D23*
%TO.P,J2,2,Pin_2*%
%TO.N,+24V*%
X128400000Y-85870000D03*
%TD*%
D24*
%TO.P,C7,1*%
%TO.N,+3V3*%
X155237500Y-76200000D03*
%TO.P,C7,2*%
%TO.N,GND*%
X153162500Y-76200000D03*
%TD*%
D22*
%TO.P,J1,1,Pin_1*%
%TO.N,GND*%
X180200000Y-85015000D03*
D23*
%TO.P,J1,2,Pin_2*%
X180200000Y-82475000D03*
%TO.P,J1,3,Pin_3*%
%TO.N,+3V3*%
X180200000Y-79935000D03*
%TO.P,J1,4,Pin_4*%
X180200000Y-77395000D03*
%TD*%
D21*
%TO.P,TP2_24V_in1,1,1*%
%TO.N,+24V*%
X134400000Y-87800000D03*
%TD*%
D20*
%TO.P,R6,1*%
%TO.N,Net-(C8-Pad2)*%
X158400000Y-88400000D03*
%TO.P,R6,2*%
%TO.N,GND*%
X158400000Y-86400000D03*
%TD*%
D25*
%TO.P,U1,1,BOOT*%
%TO.N,Net-(U1-BOOT)*%
X147130000Y-84695000D03*
%TO.P,U1,2,VIN*%
%TO.N,+24V*%
X147130000Y-85965000D03*
%TO.P,U1,3,EN*%
%TO.N,Net-(U1-EN)*%
X147130000Y-87235000D03*
%TO.P,U1,4,SS*%
%TO.N,Net-(U1-SS)*%
X147130000Y-88505000D03*
%TO.P,U1,5,VSENSE*%
%TO.N,Net-(U1-VSENSE)*%
X152070000Y-88505000D03*
%TO.P,U1,6,COMP*%
%TO.N,Net-(U1-COMP)*%
X152070000Y-87235000D03*
%TO.P,U1,7,GND*%
%TO.N,GND*%
X152070000Y-85965000D03*
%TO.P,U1,8,PH*%
%TO.N,Net-(D1-K)*%
X152070000Y-84695000D03*
%TD*%
D17*
%TO.P,R4,1*%
%TO.N,Net-(R3-Pad2)*%
X164000000Y-86400000D03*
%TO.P,R4,2*%
%TO.N,Net-(U1-VSENSE)*%
X164000000Y-88400000D03*
%TD*%
%TO.P,R3,1*%
%TO.N,+3V3*%
X166800000Y-86400000D03*
%TO.P,R3,2*%
%TO.N,Net-(R3-Pad2)*%
X166800000Y-88400000D03*
%TD*%
D21*
%TO.P,TP1_3V3_out1,1,1*%
%TO.N,+3V3*%
X173600000Y-78400000D03*
%TD*%
D24*
%TO.P,C6,1*%
%TO.N,+3V3*%
X155237500Y-79000000D03*
%TO.P,C6,2*%
%TO.N,GND*%
X153162500Y-79000000D03*
%TD*%
D17*
%TO.P,R2,1*%
%TO.N,Net-(U1-EN)*%
X143400000Y-92400000D03*
%TO.P,R2,2*%
%TO.N,GND*%
X143400000Y-94400000D03*
%TD*%
D26*
%TO.N,GND*%
X150200000Y-89800000D03*
X149000000Y-89800000D03*
X149000000Y-88400000D03*
X150200000Y-87200000D03*
X149000000Y-87200000D03*
X150200000Y-86000000D03*
X150200000Y-88400000D03*
X149000000Y-91000000D03*
X150200000Y-91000000D03*
X149000000Y-86000000D03*
%TO.N,Net-(U1-BOOT)*%
X147200000Y-83000000D03*
X154000000Y-83800000D03*
%TD*%
D27*
%TO.N,+24V*%
X146965000Y-85800000D02*
X147130000Y-85965000D01*
X141000000Y-85837500D02*
X143400000Y-85837500D01*
X132470000Y-85870000D02*
X134400000Y-87800000D01*
X147130000Y-85965000D02*
X147002500Y-85837500D01*
X128400000Y-85870000D02*
X132470000Y-85870000D01*
X136362500Y-85837500D02*
X138600000Y-85837500D01*
X143400000Y-88200000D02*
X143400000Y-85837500D01*
X134400000Y-87800000D02*
X136362500Y-85837500D01*
X138600000Y-85837500D02*
X141000000Y-85837500D01*
X147002500Y-85837500D02*
X143400000Y-85837500D01*
%TO.N,Net-(U1-SS)*%
X147130000Y-89470000D02*
X147130000Y-88505000D01*
X145800000Y-90800000D02*
X147130000Y-89470000D01*
X145800000Y-92362500D02*
X145800000Y-90800000D01*
%TO.N,Net-(U1-EN)*%
X146165000Y-87235000D02*
X147130000Y-87235000D01*
X143400000Y-90200000D02*
X143400000Y-92400000D01*
X145200000Y-89600000D02*
X144600000Y-90200000D01*
X145200000Y-88200000D02*
X145200000Y-89600000D01*
X145200000Y-88200000D02*
X146165000Y-87235000D01*
X144600000Y-90200000D02*
X143400000Y-90200000D01*
%TO.N,Net-(D1-K)*%
X150000000Y-79200000D02*
X152762500Y-81962500D01*
X152762500Y-81962500D02*
X152070000Y-82655000D01*
X157645000Y-83445000D02*
X156162500Y-81962500D01*
X156162500Y-81962500D02*
X155600000Y-81962500D01*
X152070000Y-82655000D02*
X152070000Y-84695000D01*
X162800000Y-83445000D02*
X157645000Y-83445000D01*
X152762500Y-81962500D02*
X155600000Y-81962500D01*
X150000000Y-77800000D02*
X150000000Y-79200000D01*
%TO.N,Net-(U1-BOOT)*%
X147130000Y-84695000D02*
X147130000Y-83070000D01*
X147130000Y-83070000D02*
X147200000Y-83000000D01*
X154237500Y-84037500D02*
X155600000Y-84037500D01*
X154000000Y-83800000D02*
X154237500Y-84037500D01*
%TO.N,+3V3*%
X169600000Y-84600000D02*
X167800000Y-86400000D01*
X169600000Y-75400000D02*
X168755000Y-74555000D01*
X155237500Y-76200000D02*
X156882500Y-74555000D01*
X180200000Y-77395000D02*
X174605000Y-77395000D01*
X169600000Y-84600000D02*
X169600000Y-75400000D01*
X169600000Y-75400000D02*
X170600000Y-75400000D01*
X156882500Y-74555000D02*
X162800000Y-74555000D01*
X168755000Y-74555000D02*
X162800000Y-74555000D01*
X174605000Y-77395000D02*
X173600000Y-78400000D01*
X180200000Y-77395000D02*
X180200000Y-79935000D01*
X170600000Y-75400000D02*
X173600000Y-78400000D01*
X155237500Y-79000000D02*
X155237500Y-76200000D01*
X167800000Y-86400000D02*
X166800000Y-86400000D01*
%TO.N,Net-(R3-Pad2)*%
X164800000Y-86400000D02*
X164000000Y-86400000D01*
X166800000Y-88400000D02*
X164800000Y-86400000D01*
%TO.N,Net-(U1-VSENSE)*%
X154400000Y-93200000D02*
X158800000Y-93200000D01*
X161200000Y-90800000D02*
X161200000Y-88400000D01*
X152070000Y-88505000D02*
X152070000Y-90870000D01*
X152070000Y-90870000D02*
X154400000Y-93200000D01*
X158800000Y-93200000D02*
X161200000Y-90800000D01*
X161200000Y-88400000D02*
X164000000Y-88400000D01*
%TO.N,Net-(U1-COMP)*%
X155600000Y-88437500D02*
X155600000Y-90962500D01*
X155600000Y-90962500D02*
X155562500Y-91000000D01*
X154837500Y-88437500D02*
X155600000Y-88437500D01*
X152070000Y-87235000D02*
X153635000Y-87235000D01*
X153635000Y-87235000D02*
X154837500Y-88437500D01*
%TO.N,Net-(C8-Pad2)*%
X158400000Y-90237500D02*
X158400000Y-88400000D01*
X157637500Y-91000000D02*
X158400000Y-90237500D01*
%TD*%
%TA.AperFunction,Conductor*%
%TO.N,GND*%
G36*
X183743039Y-72219685D02*
G01*
X183788794Y-72272489D01*
X183800000Y-72324000D01*
X183800000Y-95876000D01*
X183780315Y-95943039D01*
X183727511Y-95988794D01*
X183676000Y-96000000D01*
X124724000Y-96000000D01*
X124656961Y-95980315D01*
X124611206Y-95927511D01*
X124600000Y-95876000D01*
X124600000Y-94650000D01*
X142200001Y-94650000D01*
X142200001Y-94799986D01*
X142210494Y-94902697D01*
X142265641Y-95069119D01*
X142265643Y-95069124D01*
X142357684Y-95218345D01*
X142481654Y-95342315D01*
X142630875Y-95434356D01*
X142630880Y-95434358D01*
X142797302Y-95489505D01*
X142797309Y-95489506D01*
X142900019Y-95499999D01*
X143149999Y-95499999D01*
X143150000Y-95499998D01*
X143150000Y-94650000D01*
X143650000Y-94650000D01*
X143650000Y-95499999D01*
X143899972Y-95499999D01*
X143899986Y-95499998D01*
X144002697Y-95489505D01*
X144169119Y-95434358D01*
X144169124Y-95434356D01*
X144318345Y-95342315D01*
X144442317Y-95218343D01*
X144474250Y-95166571D01*
X144526197Y-95119846D01*
X144595159Y-95108623D01*
X144659242Y-95136466D01*
X144685327Y-95166569D01*
X144732682Y-95243343D01*
X144856654Y-95367315D01*
X145005875Y-95459356D01*
X145005880Y-95459358D01*
X145172302Y-95514505D01*
X145172309Y-95514506D01*
X145275019Y-95524999D01*
X145549999Y-95524999D01*
X145550000Y-95524998D01*
X145550000Y-94687500D01*
X146050000Y-94687500D01*
X146050000Y-95524999D01*
X146324972Y-95524999D01*
X146324986Y-95524998D01*
X146427697Y-95514505D01*
X146594119Y-95459358D01*
X146594124Y-95459356D01*
X146743345Y-95367315D01*
X146867315Y-95243345D01*
X146959356Y-95094124D01*
X146959358Y-95094119D01*
X147014505Y-94927697D01*
X147014506Y-94927690D01*
X147024999Y-94824986D01*
X147025000Y-94824973D01*
X147025000Y-94687500D01*
X146050000Y-94687500D01*
X145550000Y-94687500D01*
X144623862Y-94687500D01*
X144556823Y-94667815D01*
X144536181Y-94651181D01*
X144535000Y-94650000D01*
X143650000Y-94650000D01*
X143150000Y-94650000D01*
X142200001Y-94650000D01*
X124600000Y-94650000D01*
X124600000Y-85870003D01*
X125054435Y-85870003D01*
X125074630Y-86049249D01*
X125074631Y-86049254D01*
X125134211Y-86219523D01*
X125215644Y-86349122D01*
X125230184Y-86372262D01*
X125357738Y-86499816D01*
X125510478Y-86595789D01*
X125661983Y-86648803D01*
X125680745Y-86655368D01*
X125680750Y-86655369D01*
X125771246Y-86665565D01*
X125815040Y-86670499D01*
X125815043Y-86670500D01*
X125815046Y-86670500D01*
X125904957Y-86670500D01*
X125904958Y-86670499D01*
X125972104Y-86662934D01*
X126039249Y-86655369D01*
X126039252Y-86655368D01*
X126039255Y-86655368D01*
X126209522Y-86595789D01*
X126362262Y-86499816D01*
X126489816Y-86372262D01*
X126585789Y-86219522D01*
X126596115Y-86190009D01*
X126636835Y-86133235D01*
X126701787Y-86107486D01*
X126770349Y-86120941D01*
X126820753Y-86169327D01*
X126833731Y-86202017D01*
X126873126Y-86366110D01*
X126969533Y-86598859D01*
X127101160Y-86813653D01*
X127101161Y-86813656D01*
X127140541Y-86859764D01*
X127264776Y-87005224D01*
X127413066Y-87131875D01*
X127456343Y-87168838D01*
X127456346Y-87168839D01*
X127671140Y-87300466D01*
X127873617Y-87384334D01*
X127903889Y-87396873D01*
X128148852Y-87455683D01*
X128400000Y-87475449D01*
X128651148Y-87455683D01*
X128896111Y-87396873D01*
X129128859Y-87300466D01*
X129343659Y-87168836D01*
X129535224Y-87005224D01*
X129698836Y-86813659D01*
X129830466Y-86598859D01*
X129841572Y-86572048D01*
X129885412Y-86517644D01*
X129951706Y-86495579D01*
X129956133Y-86495500D01*
X132159548Y-86495500D01*
X132226587Y-86515185D01*
X132247229Y-86531819D01*
X132401819Y-86686409D01*
X132435304Y-86747732D01*
X132430320Y-86817424D01*
X132425351Y-86828933D01*
X132362646Y-86956087D01*
X132362639Y-86956102D01*
X132269921Y-87229239D01*
X132269917Y-87229254D01*
X132214613Y-87507288D01*
X132213644Y-87512161D01*
X132209109Y-87581345D01*
X132194779Y-87799992D01*
X132194778Y-87800000D01*
X132207885Y-87999980D01*
X132213644Y-88087837D01*
X132213646Y-88087849D01*
X132269917Y-88370745D01*
X132269921Y-88370760D01*
X132362642Y-88643905D01*
X132490219Y-88902606D01*
X132490223Y-88902613D01*
X132650478Y-89142452D01*
X132840672Y-89359327D01*
X133057547Y-89549521D01*
X133297386Y-89709776D01*
X133297393Y-89709780D01*
X133369796Y-89745485D01*
X133556098Y-89837359D01*
X133829247Y-89930081D01*
X134112161Y-89986356D01*
X134400000Y-90005222D01*
X134687839Y-89986356D01*
X134970753Y-89930081D01*
X135243902Y-89837359D01*
X135502611Y-89709778D01*
X135742454Y-89549520D01*
X135959327Y-89359327D01*
X136149520Y-89142454D01*
X136309778Y-88902611D01*
X136437359Y-88643902D01*
X136530081Y-88370753D01*
X136586356Y-88087839D01*
X136605222Y-87800000D01*
X136586356Y-87512161D01*
X136530081Y-87229247D01*
X136437359Y-86956098D01*
X136403576Y-86887594D01*
X136374649Y-86828935D01*
X136362652Y-86760103D01*
X136389774Y-86695712D01*
X136398180Y-86686409D01*
X136409104Y-86675486D01*
X136531027Y-86553563D01*
X136585273Y-86499318D01*
X136646597Y-86465834D01*
X136672954Y-86463000D01*
X137351652Y-86463000D01*
X137418691Y-86482685D01*
X137457189Y-86521901D01*
X137532288Y-86643656D01*
X137656344Y-86767712D01*
X137805666Y-86859814D01*
X137972203Y-86914999D01*
X138074991Y-86925500D01*
X139125008Y-86925499D01*
X139125016Y-86925498D01*
X139125019Y-86925498D01*
X139189638Y-86918897D01*
X139227797Y-86914999D01*
X139394334Y-86859814D01*
X139543656Y-86767712D01*
X139667712Y-86643656D01*
X139694461Y-86600287D01*
X139746408Y-86553563D01*
X139815370Y-86542340D01*
X139879453Y-86570183D01*
X139905537Y-86600286D01*
X139913071Y-86612500D01*
X139923593Y-86629560D01*
X139932288Y-86643656D01*
X140056344Y-86767712D01*
X140205666Y-86859814D01*
X140372203Y-86914999D01*
X140474991Y-86925500D01*
X141525008Y-86925499D01*
X141525016Y-86925498D01*
X141525019Y-86925498D01*
X141589638Y-86918897D01*
X141627797Y-86914999D01*
X141794334Y-86859814D01*
X141943656Y-86767712D01*
X142067712Y-86643656D01*
X142094461Y-86600287D01*
X142146408Y-86553563D01*
X142215370Y-86542340D01*
X142279453Y-86570183D01*
X142305537Y-86600286D01*
X142313071Y-86612500D01*
X142323593Y-86629560D01*
X142332288Y-86643656D01*
X142456344Y-86767712D01*
X142605666Y-86859814D01*
X142689505Y-86887595D01*
X142746948Y-86927366D01*
X142773772Y-86991882D01*
X142774500Y-87005300D01*
X142774500Y-87027983D01*
X142754815Y-87095022D01*
X142702011Y-87140777D01*
X142689510Y-87145686D01*
X142630665Y-87165186D01*
X142630666Y-87165186D01*
X142630663Y-87165187D01*
X142481342Y-87257289D01*
X142357289Y-87381342D01*
X142265187Y-87530663D01*
X142265185Y-87530668D01*
X142238819Y-87610235D01*
X142210001Y-87697203D01*
X142210001Y-87697204D01*
X142210000Y-87697204D01*
X142199500Y-87799983D01*
X142199500Y-88600001D01*
X142199501Y-88600019D01*
X142210000Y-88702796D01*
X142210001Y-88702799D01*
X142265185Y-88869331D01*
X142265187Y-88869336D01*
X142357289Y-89018657D01*
X142450951Y-89112319D01*
X142484436Y-89173642D01*
X142479452Y-89243334D01*
X142450951Y-89287681D01*
X142357289Y-89381342D01*
X142265187Y-89530663D01*
X142265185Y-89530668D01*
X142259104Y-89549019D01*
X142210001Y-89697203D01*
X142210001Y-89697204D01*
X142210000Y-89697204D01*
X142199500Y-89799983D01*
X142199500Y-90600001D01*
X142199501Y-90600019D01*
X142210000Y-90702796D01*
X142210001Y-90702799D01*
X142255327Y-90839582D01*
X142265186Y-90869334D01*
X142357288Y-91018656D01*
X142481344Y-91142712D01*
X142531636Y-91173732D01*
X142565243Y-91194461D01*
X142611967Y-91246409D01*
X142623190Y-91315372D01*
X142595346Y-91379454D01*
X142565243Y-91405539D01*
X142481342Y-91457289D01*
X142357289Y-91581342D01*
X142265187Y-91730663D01*
X142265185Y-91730668D01*
X142244089Y-91794331D01*
X142210001Y-91897203D01*
X142210001Y-91897204D01*
X142210000Y-91897204D01*
X142199500Y-91999983D01*
X142199500Y-92800001D01*
X142199501Y-92800019D01*
X142210000Y-92902796D01*
X142210001Y-92902799D01*
X142265185Y-93069331D01*
X142265187Y-93069336D01*
X142273799Y-93083298D01*
X142357286Y-93218653D01*
X142357289Y-93218657D01*
X142451304Y-93312672D01*
X142484789Y-93373995D01*
X142479805Y-93443687D01*
X142451305Y-93488034D01*
X142357682Y-93581657D01*
X142265643Y-93730875D01*
X142265641Y-93730880D01*
X142210494Y-93897302D01*
X142210493Y-93897309D01*
X142200000Y-94000013D01*
X142200000Y-94150000D01*
X144551138Y-94150000D01*
X144618177Y-94169685D01*
X144638819Y-94186319D01*
X144640000Y-94187500D01*
X147024999Y-94187500D01*
X147024999Y-94050028D01*
X147024998Y-94050013D01*
X147014505Y-93947302D01*
X146959358Y-93780880D01*
X146959356Y-93780875D01*
X146867315Y-93631654D01*
X146743344Y-93507683D01*
X146743341Y-93507681D01*
X146740339Y-93505829D01*
X146738713Y-93504021D01*
X146737677Y-93503202D01*
X146737817Y-93503024D01*
X146693617Y-93453880D01*
X146682397Y-93384917D01*
X146710243Y-93320836D01*
X146740344Y-93294754D01*
X146743656Y-93292712D01*
X146867712Y-93168656D01*
X146959814Y-93019334D01*
X147014999Y-92852797D01*
X147025500Y-92750009D01*
X147025499Y-91974992D01*
X147014999Y-91872203D01*
X146959814Y-91705666D01*
X146867712Y-91556344D01*
X146743656Y-91432288D01*
X146594334Y-91340186D01*
X146510495Y-91312404D01*
X146453051Y-91272632D01*
X146426228Y-91208116D01*
X146425500Y-91194699D01*
X146425500Y-91110452D01*
X146445185Y-91043413D01*
X146461819Y-91022771D01*
X146974166Y-90510424D01*
X147513788Y-89970801D01*
X147526042Y-89960986D01*
X147525859Y-89960764D01*
X147531866Y-89955792D01*
X147531877Y-89955786D01*
X147564603Y-89920936D01*
X147579227Y-89905364D01*
X147589671Y-89894918D01*
X147600120Y-89884471D01*
X147604379Y-89878978D01*
X147608152Y-89874561D01*
X147640062Y-89840582D01*
X147649715Y-89823020D01*
X147660389Y-89806770D01*
X147672673Y-89790936D01*
X147691180Y-89748167D01*
X147693749Y-89742924D01*
X147711971Y-89709778D01*
X147716197Y-89702092D01*
X147721177Y-89682691D01*
X147727478Y-89664288D01*
X147735438Y-89645896D01*
X147742730Y-89599849D01*
X147743911Y-89594152D01*
X147744494Y-89591882D01*
X147755500Y-89549019D01*
X147755500Y-89528982D01*
X147757027Y-89509582D01*
X147760160Y-89489804D01*
X147755775Y-89443415D01*
X147755500Y-89437577D01*
X147755500Y-89429500D01*
X147775185Y-89362461D01*
X147827989Y-89316706D01*
X147879500Y-89305500D01*
X148077713Y-89305500D01*
X148077720Y-89305500D01*
X148190236Y-89290687D01*
X148330233Y-89232698D01*
X148450451Y-89140451D01*
X148542698Y-89020233D01*
X148600687Y-88880236D01*
X148615500Y-88767720D01*
X148615500Y-88242280D01*
X148600687Y-88129764D01*
X148555835Y-88021482D01*
X148542699Y-87989769D01*
X148542698Y-87989768D01*
X148542698Y-87989767D01*
X148508718Y-87945484D01*
X148483525Y-87880315D01*
X148497564Y-87811871D01*
X148508712Y-87794522D01*
X148542698Y-87750233D01*
X148600687Y-87610236D01*
X148615500Y-87497720D01*
X148615500Y-86972280D01*
X148600687Y-86859764D01*
X148542698Y-86719767D01*
X148508720Y-86675486D01*
X148483526Y-86610317D01*
X148497564Y-86541872D01*
X148508720Y-86524514D01*
X148518694Y-86511515D01*
X148542698Y-86480233D01*
X148600687Y-86340236D01*
X148615500Y-86227720D01*
X148615500Y-86150000D01*
X157200000Y-86150000D01*
X158150000Y-86150000D01*
X158150000Y-85300000D01*
X158650000Y-85300000D01*
X158650000Y-86150000D01*
X159599999Y-86150000D01*
X160000000Y-86150000D01*
X160950000Y-86150000D01*
X160950000Y-85300000D01*
X161450000Y-85300000D01*
X161450000Y-86150000D01*
X162399999Y-86150000D01*
X162399999Y-86000028D01*
X162399998Y-86000013D01*
X162389505Y-85897302D01*
X162334358Y-85730880D01*
X162334356Y-85730875D01*
X162242315Y-85581654D01*
X162118345Y-85457684D01*
X161969124Y-85365643D01*
X161969119Y-85365641D01*
X161802697Y-85310494D01*
X161802690Y-85310493D01*
X161699986Y-85300000D01*
X161450000Y-85300000D01*
X160950000Y-85300000D01*
X160700029Y-85300000D01*
X160700012Y-85300001D01*
X160597302Y-85310494D01*
X160430880Y-85365641D01*
X160430875Y-85365643D01*
X160281654Y-85457684D01*
X160157684Y-85581654D01*
X160065643Y-85730875D01*
X160065641Y-85730880D01*
X160010494Y-85897302D01*
X160010493Y-85897309D01*
X160000000Y-86000013D01*
X160000000Y-86150000D01*
X159599999Y-86150000D01*
X159599999Y-86000028D01*
X159599998Y-86000013D01*
X159589505Y-85897302D01*
X159534358Y-85730880D01*
X159534356Y-85730875D01*
X159442315Y-85581654D01*
X159318345Y-85457684D01*
X159169124Y-85365643D01*
X159169119Y-85365641D01*
X159002697Y-85310494D01*
X159002690Y-85310493D01*
X158899986Y-85300000D01*
X158650000Y-85300000D01*
X158150000Y-85300000D01*
X157900029Y-85300000D01*
X157900012Y-85300001D01*
X157797302Y-85310494D01*
X157630880Y-85365641D01*
X157630875Y-85365643D01*
X157481654Y-85457684D01*
X157357684Y-85581654D01*
X157265643Y-85730875D01*
X157265641Y-85730880D01*
X157210494Y-85897302D01*
X157210493Y-85897309D01*
X157200000Y-86000013D01*
X157200000Y-86150000D01*
X148615500Y-86150000D01*
X148615500Y-86112500D01*
X154375000Y-86112500D01*
X155350000Y-86112500D01*
X155350000Y-85275000D01*
X155850000Y-85275000D01*
X155850000Y-86112500D01*
X156824999Y-86112500D01*
X156824999Y-85975028D01*
X156824998Y-85975013D01*
X156814505Y-85872302D01*
X156759358Y-85705880D01*
X156759356Y-85705875D01*
X156667315Y-85556654D01*
X156543345Y-85432684D01*
X156394124Y-85340643D01*
X156394119Y-85340641D01*
X156227697Y-85285494D01*
X156227690Y-85285493D01*
X156124986Y-85275000D01*
X155850000Y-85275000D01*
X155350000Y-85275000D01*
X155075029Y-85275000D01*
X155075012Y-85275001D01*
X154972302Y-85285494D01*
X154805880Y-85340641D01*
X154805875Y-85340643D01*
X154656654Y-85432684D01*
X154532684Y-85556654D01*
X154440643Y-85705875D01*
X154440641Y-85705880D01*
X154385494Y-85872302D01*
X154385493Y-85872309D01*
X154375000Y-85975013D01*
X154375000Y-86112500D01*
X148615500Y-86112500D01*
X148615500Y-85702280D01*
X148600687Y-85589764D01*
X148544268Y-85453557D01*
X148542699Y-85449769D01*
X148542697Y-85449766D01*
X148508720Y-85405485D01*
X148483526Y-85340315D01*
X148497565Y-85271870D01*
X148508721Y-85254512D01*
X148515970Y-85245066D01*
X148542698Y-85210233D01*
X148600687Y-85070236D01*
X148615500Y-84957720D01*
X148615500Y-84432280D01*
X148600687Y-84319764D01*
X148542698Y-84179767D01*
X148450451Y-84059549D01*
X148330233Y-83967302D01*
X148330229Y-83967300D01*
X148266801Y-83941027D01*
X148190236Y-83909313D01*
X148165687Y-83906081D01*
X148077727Y-83894500D01*
X148077720Y-83894500D01*
X147882481Y-83894500D01*
X147815442Y-83874815D01*
X147769687Y-83822011D01*
X147759743Y-83752853D01*
X147788768Y-83689297D01*
X147801433Y-83677673D01*
X147801041Y-83677237D01*
X147805865Y-83672891D01*
X147805871Y-83672888D01*
X147932533Y-83532216D01*
X148027179Y-83368284D01*
X148085674Y-83188256D01*
X148105460Y-83000000D01*
X148085674Y-82811744D01*
X148027179Y-82631716D01*
X147932533Y-82467784D01*
X147805871Y-82327112D01*
X147805870Y-82327111D01*
X147652734Y-82215851D01*
X147652729Y-82215848D01*
X147479807Y-82138857D01*
X147479802Y-82138855D01*
X147334000Y-82107865D01*
X147294646Y-82099500D01*
X147105354Y-82099500D01*
X147072897Y-82106398D01*
X146920197Y-82138855D01*
X146920192Y-82138857D01*
X146747270Y-82215848D01*
X146747265Y-82215851D01*
X146594129Y-82327111D01*
X146467466Y-82467785D01*
X146372821Y-82631715D01*
X146372818Y-82631722D01*
X146319631Y-82795416D01*
X146314326Y-82811744D01*
X146294540Y-83000000D01*
X146314326Y-83188256D01*
X146314327Y-83188259D01*
X146372818Y-83368277D01*
X146372821Y-83368284D01*
X146467467Y-83532216D01*
X146472649Y-83537971D01*
X146502879Y-83600962D01*
X146504500Y-83620944D01*
X146504500Y-83770500D01*
X146484815Y-83837539D01*
X146432011Y-83883294D01*
X146380500Y-83894500D01*
X146182272Y-83894500D01*
X146069764Y-83909313D01*
X146069763Y-83909313D01*
X145929770Y-83967300D01*
X145929767Y-83967301D01*
X145929767Y-83967302D01*
X145846498Y-84031197D01*
X145809549Y-84059549D01*
X145717300Y-84179770D01*
X145659313Y-84319763D01*
X145659313Y-84319764D01*
X145644500Y-84432272D01*
X145644500Y-84957727D01*
X145659521Y-85071814D01*
X145648756Y-85140850D01*
X145602376Y-85193106D01*
X145536582Y-85212000D01*
X144648348Y-85212000D01*
X144581309Y-85192315D01*
X144542809Y-85153097D01*
X144467712Y-85031344D01*
X144343656Y-84907288D01*
X144340342Y-84905243D01*
X144338546Y-84903248D01*
X144337989Y-84902807D01*
X144338064Y-84902711D01*
X144293618Y-84853297D01*
X144282397Y-84784334D01*
X144310240Y-84720252D01*
X144340348Y-84694165D01*
X144343342Y-84692318D01*
X144467315Y-84568345D01*
X144559356Y-84419124D01*
X144559358Y-84419119D01*
X144614505Y-84252697D01*
X144614506Y-84252690D01*
X144624999Y-84149986D01*
X144625000Y-84149973D01*
X144625000Y-84012500D01*
X137375001Y-84012500D01*
X137375001Y-84149986D01*
X137385494Y-84252697D01*
X137440641Y-84419119D01*
X137440643Y-84419124D01*
X137532684Y-84568345D01*
X137656655Y-84692316D01*
X137656659Y-84692319D01*
X137659656Y-84694168D01*
X137661279Y-84695972D01*
X137662323Y-84696798D01*
X137662181Y-84696976D01*
X137706381Y-84746116D01*
X137717602Y-84815079D01*
X137689759Y-84879161D01*
X137659661Y-84905241D01*
X137656349Y-84907283D01*
X137656343Y-84907288D01*
X137532289Y-85031342D01*
X137532287Y-85031344D01*
X137532288Y-85031344D01*
X137462672Y-85144211D01*
X137457191Y-85153097D01*
X137405243Y-85199821D01*
X137351652Y-85212000D01*
X136445238Y-85212000D01*
X136429621Y-85210276D01*
X136429594Y-85210562D01*
X136421832Y-85209827D01*
X136352704Y-85212000D01*
X136323150Y-85212000D01*
X136322429Y-85212090D01*
X136316257Y-85212869D01*
X136310445Y-85213326D01*
X136263873Y-85214790D01*
X136263872Y-85214790D01*
X136244629Y-85220381D01*
X136225579Y-85224325D01*
X136205711Y-85226834D01*
X136205709Y-85226835D01*
X136162384Y-85243988D01*
X136156857Y-85245880D01*
X136112110Y-85258881D01*
X136112109Y-85258882D01*
X136094867Y-85269079D01*
X136077399Y-85277637D01*
X136058769Y-85285013D01*
X136058767Y-85285014D01*
X136021076Y-85312398D01*
X136016194Y-85315605D01*
X135976079Y-85339330D01*
X135961908Y-85353500D01*
X135947123Y-85366128D01*
X135936445Y-85373887D01*
X135930912Y-85377907D01*
X135901209Y-85413810D01*
X135897277Y-85418131D01*
X135513589Y-85801818D01*
X135452266Y-85835303D01*
X135382574Y-85830319D01*
X135371065Y-85825350D01*
X135323346Y-85801818D01*
X135243902Y-85762641D01*
X135243898Y-85762639D01*
X134970760Y-85669921D01*
X134970754Y-85669919D01*
X134970753Y-85669919D01*
X134970751Y-85669918D01*
X134970745Y-85669917D01*
X134687849Y-85613646D01*
X134687839Y-85613644D01*
X134400000Y-85594778D01*
X134112161Y-85613644D01*
X134112155Y-85613645D01*
X134112150Y-85613646D01*
X133829254Y-85669917D01*
X133829239Y-85669921D01*
X133556101Y-85762639D01*
X133428933Y-85825350D01*
X133360100Y-85837345D01*
X133295710Y-85810223D01*
X133286409Y-85801818D01*
X132970803Y-85486212D01*
X132960980Y-85473950D01*
X132960759Y-85474134D01*
X132955786Y-85468123D01*
X132936238Y-85449766D01*
X132905364Y-85420773D01*
X132890076Y-85405485D01*
X132884475Y-85399883D01*
X132878986Y-85395625D01*
X132874561Y-85391847D01*
X132840582Y-85359938D01*
X132840580Y-85359936D01*
X132840577Y-85359935D01*
X132823029Y-85350288D01*
X132806763Y-85339604D01*
X132800891Y-85335049D01*
X132790936Y-85327327D01*
X132790935Y-85327326D01*
X132790933Y-85327325D01*
X132748168Y-85308818D01*
X132742922Y-85306248D01*
X132702093Y-85283803D01*
X132702092Y-85283802D01*
X132682693Y-85278822D01*
X132664281Y-85272518D01*
X132645898Y-85264562D01*
X132645892Y-85264560D01*
X132599874Y-85257272D01*
X132594152Y-85256087D01*
X132549021Y-85244500D01*
X132549019Y-85244500D01*
X132528984Y-85244500D01*
X132509586Y-85242973D01*
X132496844Y-85240955D01*
X132489805Y-85239840D01*
X132489804Y-85239840D01*
X132443416Y-85244225D01*
X132437578Y-85244500D01*
X129956133Y-85244500D01*
X129889094Y-85224815D01*
X129843339Y-85172011D01*
X129841572Y-85167952D01*
X129830467Y-85141143D01*
X129830466Y-85141141D01*
X129749217Y-85008555D01*
X129730972Y-84941110D01*
X129752088Y-84874507D01*
X129780633Y-84844498D01*
X129857190Y-84787186D01*
X129943350Y-84672093D01*
X129943354Y-84672086D01*
X129993596Y-84537379D01*
X129993598Y-84537372D01*
X129999999Y-84477844D01*
X130000000Y-84477827D01*
X130000000Y-83580000D01*
X129066956Y-83580000D01*
X128999917Y-83560315D01*
X128954162Y-83507511D01*
X128943245Y-83447537D01*
X128944327Y-83431722D01*
X128953877Y-83292114D01*
X128940809Y-83229227D01*
X128946443Y-83159586D01*
X128988834Y-83104045D01*
X129054523Y-83080239D01*
X129062216Y-83080000D01*
X130000000Y-83080000D01*
X130000000Y-82600007D01*
X132195280Y-82600007D01*
X132214140Y-82887757D01*
X132214144Y-82887784D01*
X132270402Y-83170615D01*
X132270407Y-83170635D01*
X132363100Y-83443702D01*
X132363104Y-83443712D01*
X132490653Y-83702356D01*
X132650873Y-83942141D01*
X132650878Y-83942147D01*
X132675837Y-83970607D01*
X133486333Y-83160111D01*
X133547656Y-83126626D01*
X133617347Y-83131610D01*
X133673281Y-83173482D01*
X133674332Y-83174907D01*
X133704948Y-83217047D01*
X133708805Y-83222355D01*
X133828356Y-83330000D01*
X133833963Y-83335048D01*
X133870612Y-83394535D01*
X133869281Y-83464392D01*
X133838672Y-83514879D01*
X133029391Y-84324161D01*
X133029391Y-84324162D01*
X133057852Y-84349121D01*
X133057858Y-84349126D01*
X133297643Y-84509346D01*
X133556287Y-84636895D01*
X133556297Y-84636899D01*
X133829364Y-84729592D01*
X133829384Y-84729597D01*
X134112215Y-84785855D01*
X134112242Y-84785859D01*
X134399993Y-84804720D01*
X134400007Y-84804720D01*
X134687757Y-84785859D01*
X134687784Y-84785855D01*
X134970615Y-84729597D01*
X134970635Y-84729592D01*
X135243702Y-84636899D01*
X135243712Y-84636895D01*
X135502356Y-84509346D01*
X135742146Y-84349122D01*
X135770607Y-84324161D01*
X135770607Y-84324160D01*
X134961327Y-83514880D01*
X134927842Y-83453557D01*
X134932826Y-83383865D01*
X134966036Y-83335049D01*
X134971644Y-83330000D01*
X135035716Y-83272309D01*
X135091190Y-83222360D01*
X135091191Y-83222358D01*
X135091195Y-83222355D01*
X135125668Y-83174907D01*
X135180996Y-83132242D01*
X135250610Y-83126263D01*
X135312405Y-83158868D01*
X135313666Y-83160112D01*
X136124161Y-83970608D01*
X136124162Y-83970607D01*
X136149117Y-83942153D01*
X136149121Y-83942148D01*
X136309346Y-83702356D01*
X136402973Y-83512500D01*
X137375000Y-83512500D01*
X138350000Y-83512500D01*
X138350000Y-82675000D01*
X138850000Y-82675000D01*
X138850000Y-83512500D01*
X140750000Y-83512500D01*
X140750000Y-82675000D01*
X141250000Y-82675000D01*
X141250000Y-83512500D01*
X143150000Y-83512500D01*
X143150000Y-82675000D01*
X143650000Y-82675000D01*
X143650000Y-83512500D01*
X144624999Y-83512500D01*
X144624999Y-83375028D01*
X144624998Y-83375013D01*
X144614505Y-83272302D01*
X144559358Y-83105880D01*
X144559356Y-83105875D01*
X144467315Y-82956654D01*
X144343345Y-82832684D01*
X144194124Y-82740643D01*
X144194119Y-82740641D01*
X144027697Y-82685494D01*
X144027690Y-82685493D01*
X143924986Y-82675000D01*
X143650000Y-82675000D01*
X143150000Y-82675000D01*
X142875029Y-82675000D01*
X142875012Y-82675001D01*
X142772302Y-82685494D01*
X142605880Y-82740641D01*
X142605875Y-82740643D01*
X142456654Y-82832684D01*
X142332684Y-82956654D01*
X142305539Y-83000664D01*
X142253591Y-83047389D01*
X142184628Y-83058610D01*
X142120546Y-83030767D01*
X142094461Y-83000664D01*
X142067315Y-82956654D01*
X141943345Y-82832684D01*
X141794124Y-82740643D01*
X141794119Y-82740641D01*
X141627697Y-82685494D01*
X141627690Y-82685493D01*
X141524986Y-82675000D01*
X141250000Y-82675000D01*
X140750000Y-82675000D01*
X140475029Y-82675000D01*
X140475012Y-82675001D01*
X140372302Y-82685494D01*
X140205880Y-82740641D01*
X140205875Y-82740643D01*
X140056654Y-82832684D01*
X139932684Y-82956654D01*
X139905539Y-83000664D01*
X139853591Y-83047389D01*
X139784628Y-83058610D01*
X139720546Y-83030767D01*
X139694461Y-83000664D01*
X139667315Y-82956654D01*
X139543345Y-82832684D01*
X139394124Y-82740643D01*
X139394119Y-82740641D01*
X139227697Y-82685494D01*
X139227690Y-82685493D01*
X139124986Y-82675000D01*
X138850000Y-82675000D01*
X138350000Y-82675000D01*
X138075029Y-82675000D01*
X138075012Y-82675001D01*
X137972302Y-82685494D01*
X137805880Y-82740641D01*
X137805875Y-82740643D01*
X137656654Y-82832684D01*
X137532684Y-82956654D01*
X137440643Y-83105875D01*
X137440641Y-83105880D01*
X137385494Y-83272302D01*
X137385493Y-83272309D01*
X137375000Y-83375013D01*
X137375000Y-83512500D01*
X136402973Y-83512500D01*
X136436895Y-83443712D01*
X136436899Y-83443702D01*
X136529592Y-83170635D01*
X136529597Y-83170615D01*
X136585855Y-82887784D01*
X136585859Y-82887757D01*
X136604720Y-82600007D01*
X136604720Y-82599992D01*
X136585859Y-82312242D01*
X136585855Y-82312215D01*
X136529597Y-82029384D01*
X136529592Y-82029364D01*
X136436899Y-81756297D01*
X136436895Y-81756287D01*
X136309346Y-81497643D01*
X136149126Y-81257858D01*
X136149121Y-81257852D01*
X136124161Y-81229391D01*
X135313665Y-82039887D01*
X135252342Y-82073372D01*
X135182650Y-82068388D01*
X135126717Y-82026516D01*
X135125762Y-82025223D01*
X135091195Y-81977645D01*
X135084231Y-81971375D01*
X134966035Y-81864950D01*
X134929386Y-81805463D01*
X134930717Y-81735606D01*
X134961326Y-81685119D01*
X135770607Y-80875837D01*
X135770607Y-80875836D01*
X135742147Y-80850878D01*
X135742141Y-80850873D01*
X135502356Y-80690653D01*
X135243712Y-80563104D01*
X135243702Y-80563100D01*
X134970635Y-80470407D01*
X134970615Y-80470402D01*
X134687784Y-80414144D01*
X134687757Y-80414140D01*
X134400007Y-80395280D01*
X134399993Y-80395280D01*
X134112242Y-80414140D01*
X134112215Y-80414144D01*
X133829384Y-80470402D01*
X133829364Y-80470407D01*
X133556297Y-80563100D01*
X133556287Y-80563104D01*
X133297643Y-80690653D01*
X133057853Y-80850876D01*
X133057847Y-80850881D01*
X133029391Y-80875835D01*
X133029391Y-80875838D01*
X133838672Y-81685119D01*
X133872157Y-81746442D01*
X133867173Y-81816134D01*
X133833964Y-81864950D01*
X133708805Y-81977644D01*
X133674331Y-82025093D01*
X133619000Y-82067758D01*
X133549387Y-82073736D01*
X133487592Y-82041129D01*
X133486333Y-82039887D01*
X132675838Y-81229391D01*
X132675835Y-81229391D01*
X132650881Y-81257847D01*
X132650876Y-81257853D01*
X132490653Y-81497643D01*
X132363104Y-81756287D01*
X132363100Y-81756297D01*
X132270407Y-82029364D01*
X132270402Y-82029384D01*
X132214144Y-82312215D01*
X132214140Y-82312242D01*
X132195280Y-82599992D01*
X132195280Y-82600007D01*
X130000000Y-82600007D01*
X130000000Y-82182172D01*
X129999999Y-82182155D01*
X129993598Y-82122627D01*
X129993596Y-82122620D01*
X129943354Y-81987913D01*
X129943350Y-81987906D01*
X129857190Y-81872812D01*
X129857187Y-81872809D01*
X129742093Y-81786649D01*
X129742086Y-81786645D01*
X129607379Y-81736403D01*
X129607372Y-81736401D01*
X129547844Y-81730000D01*
X128650000Y-81730000D01*
X128650000Y-82665347D01*
X128630315Y-82732386D01*
X128577511Y-82778141D01*
X128508353Y-82788085D01*
X128492547Y-82784749D01*
X128475598Y-82780000D01*
X128475596Y-82780000D01*
X128362378Y-82780000D01*
X128362376Y-82780000D01*
X128290883Y-82789826D01*
X128221788Y-82779453D01*
X128169269Y-82733371D01*
X128149999Y-82666981D01*
X128150000Y-81730000D01*
X127252155Y-81730000D01*
X127192627Y-81736401D01*
X127192620Y-81736403D01*
X127057913Y-81786645D01*
X127057906Y-81786649D01*
X126942812Y-81872809D01*
X126942809Y-81872812D01*
X126856649Y-81987906D01*
X126856645Y-81987913D01*
X126806403Y-82122620D01*
X126806401Y-82122627D01*
X126800000Y-82182155D01*
X126800000Y-82890978D01*
X126780315Y-82958017D01*
X126727511Y-83003772D01*
X126658353Y-83013716D01*
X126594797Y-82984691D01*
X126571007Y-82956951D01*
X126489817Y-82827739D01*
X126362262Y-82700184D01*
X126209523Y-82604211D01*
X126039254Y-82544631D01*
X126039249Y-82544630D01*
X125904960Y-82529500D01*
X125904954Y-82529500D01*
X125815046Y-82529500D01*
X125815039Y-82529500D01*
X125680750Y-82544630D01*
X125680745Y-82544631D01*
X125510476Y-82604211D01*
X125357737Y-82700184D01*
X125230184Y-82827737D01*
X125134211Y-82980476D01*
X125074631Y-83150745D01*
X125074630Y-83150750D01*
X125054435Y-83329996D01*
X125054435Y-83330003D01*
X125074630Y-83509249D01*
X125074631Y-83509254D01*
X125134211Y-83679523D01*
X125182452Y-83756297D01*
X125230184Y-83832262D01*
X125357738Y-83959816D01*
X125510478Y-84055789D01*
X125608776Y-84090185D01*
X125680745Y-84115368D01*
X125680750Y-84115369D01*
X125771246Y-84125565D01*
X125815040Y-84130499D01*
X125815043Y-84130500D01*
X125815046Y-84130500D01*
X125904957Y-84130500D01*
X125904958Y-84130499D01*
X125972104Y-84122934D01*
X126039249Y-84115369D01*
X126039252Y-84115368D01*
X126039255Y-84115368D01*
X126209522Y-84055789D01*
X126362262Y-83959816D01*
X126489816Y-83832262D01*
X126571005Y-83703049D01*
X126623341Y-83656758D01*
X126692394Y-83646110D01*
X126756243Y-83674485D01*
X126794615Y-83732875D01*
X126800000Y-83769021D01*
X126800000Y-84477844D01*
X126806401Y-84537372D01*
X126806403Y-84537379D01*
X126856645Y-84672086D01*
X126856649Y-84672093D01*
X126942809Y-84787187D01*
X126942812Y-84787190D01*
X127019366Y-84844499D01*
X127061237Y-84900433D01*
X127066221Y-84970124D01*
X127050783Y-85008555D01*
X126969531Y-85141145D01*
X126873127Y-85373887D01*
X126833731Y-85537983D01*
X126798940Y-85598574D01*
X126736914Y-85630738D01*
X126667345Y-85624262D01*
X126612321Y-85581202D01*
X126596115Y-85549988D01*
X126587371Y-85525000D01*
X126585789Y-85520478D01*
X126489816Y-85367738D01*
X126362262Y-85240184D01*
X126341016Y-85226834D01*
X126209523Y-85144211D01*
X126039254Y-85084631D01*
X126039249Y-85084630D01*
X125904960Y-85069500D01*
X125904954Y-85069500D01*
X125815046Y-85069500D01*
X125815039Y-85069500D01*
X125680750Y-85084630D01*
X125680745Y-85084631D01*
X125510476Y-85144211D01*
X125357737Y-85240184D01*
X125230184Y-85367737D01*
X125134211Y-85520476D01*
X125074631Y-85690745D01*
X125074630Y-85690750D01*
X125054435Y-85869996D01*
X125054435Y-85870003D01*
X124600000Y-85870003D01*
X124600000Y-78050000D01*
X141450001Y-78050000D01*
X141450001Y-79249986D01*
X141460494Y-79352697D01*
X141515641Y-79519119D01*
X141515643Y-79519124D01*
X141607684Y-79668345D01*
X141731654Y-79792315D01*
X141880875Y-79884356D01*
X141880880Y-79884358D01*
X142047302Y-79939505D01*
X142047309Y-79939506D01*
X142150019Y-79949999D01*
X142949999Y-79949999D01*
X142950000Y-79949998D01*
X142950000Y-78050000D01*
X143450000Y-78050000D01*
X143450000Y-79949999D01*
X144249972Y-79949999D01*
X144249986Y-79949998D01*
X144352697Y-79939505D01*
X144519119Y-79884358D01*
X144519124Y-79884356D01*
X144668345Y-79792315D01*
X144792315Y-79668345D01*
X144884356Y-79519124D01*
X144884358Y-79519119D01*
X144939505Y-79352697D01*
X144939506Y-79352690D01*
X144949999Y-79249986D01*
X144950000Y-79249973D01*
X144950000Y-78050000D01*
X143450000Y-78050000D01*
X142950000Y-78050000D01*
X141450001Y-78050000D01*
X124600000Y-78050000D01*
X124600000Y-77550000D01*
X141450000Y-77550000D01*
X142950000Y-77550000D01*
X142950000Y-75650000D01*
X143450000Y-75650000D01*
X143450000Y-77550000D01*
X144949999Y-77550000D01*
X144949999Y-76350028D01*
X144949998Y-76350013D01*
X144949996Y-76349996D01*
X148249500Y-76349996D01*
X148249501Y-79250000D01*
X148249501Y-79250018D01*
X148260000Y-79352796D01*
X148260001Y-79352799D01*
X148315185Y-79519331D01*
X148315187Y-79519336D01*
X148350068Y-79575888D01*
X148407288Y-79668656D01*
X148531344Y-79792712D01*
X148680666Y-79884814D01*
X148847203Y-79939999D01*
X148949991Y-79950500D01*
X149814547Y-79950499D01*
X149881586Y-79970183D01*
X149902228Y-79986818D01*
X151790227Y-81874818D01*
X151823712Y-81936141D01*
X151818728Y-82005833D01*
X151790227Y-82050180D01*
X151686208Y-82154199D01*
X151673951Y-82164020D01*
X151674134Y-82164241D01*
X151668123Y-82169213D01*
X151620772Y-82219636D01*
X151599889Y-82240519D01*
X151599877Y-82240532D01*
X151595621Y-82246017D01*
X151591837Y-82250447D01*
X151559937Y-82284418D01*
X151559936Y-82284420D01*
X151550284Y-82301976D01*
X151539610Y-82318226D01*
X151527329Y-82334061D01*
X151527324Y-82334068D01*
X151508815Y-82376838D01*
X151506245Y-82382084D01*
X151483803Y-82422906D01*
X151478822Y-82442307D01*
X151472521Y-82460710D01*
X151464562Y-82479102D01*
X151464561Y-82479105D01*
X151457271Y-82525127D01*
X151456087Y-82530846D01*
X151444501Y-82575972D01*
X151444500Y-82575982D01*
X151444500Y-82596016D01*
X151442973Y-82615415D01*
X151439840Y-82635194D01*
X151439840Y-82635195D01*
X151444225Y-82681583D01*
X151444500Y-82687421D01*
X151444500Y-83770500D01*
X151424815Y-83837539D01*
X151372011Y-83883294D01*
X151320500Y-83894500D01*
X151122272Y-83894500D01*
X151009764Y-83909313D01*
X151009763Y-83909313D01*
X150869770Y-83967300D01*
X150869767Y-83967301D01*
X150869767Y-83967302D01*
X150786498Y-84031197D01*
X150749549Y-84059549D01*
X150657300Y-84179770D01*
X150599313Y-84319763D01*
X150599313Y-84319764D01*
X150584500Y-84432272D01*
X150584500Y-84957727D01*
X150599313Y-85070235D01*
X150599313Y-85070236D01*
X150657133Y-85209827D01*
X150657302Y-85210233D01*
X150691594Y-85254923D01*
X150716788Y-85320091D01*
X150702750Y-85388536D01*
X150691595Y-85405894D01*
X150657737Y-85450019D01*
X150599801Y-85589891D01*
X150599800Y-85589895D01*
X150585000Y-85702302D01*
X150585000Y-85715000D01*
X153555000Y-85715000D01*
X153555000Y-85702316D01*
X153554999Y-85702302D01*
X153540199Y-85589895D01*
X153540198Y-85589891D01*
X153482262Y-85450018D01*
X153448405Y-85405895D01*
X153423211Y-85340726D01*
X153437250Y-85272281D01*
X153448398Y-85254933D01*
X153482698Y-85210233D01*
X153540687Y-85070236D01*
X153555500Y-84957720D01*
X153555500Y-84778301D01*
X153575185Y-84711263D01*
X153627989Y-84665508D01*
X153697147Y-84655564D01*
X153717818Y-84660371D01*
X153720194Y-84661142D01*
X153720197Y-84661144D01*
X153905354Y-84700500D01*
X153905355Y-84700500D01*
X154094644Y-84700500D01*
X154094646Y-84700500D01*
X154258321Y-84665709D01*
X154284102Y-84663000D01*
X154500270Y-84663000D01*
X154567309Y-84682685D01*
X154587951Y-84699319D01*
X154656344Y-84767712D01*
X154805666Y-84859814D01*
X154972203Y-84914999D01*
X155074991Y-84925500D01*
X156125008Y-84925499D01*
X156125016Y-84925498D01*
X156125019Y-84925498D01*
X156181302Y-84919748D01*
X156227797Y-84914999D01*
X156394334Y-84859814D01*
X156543656Y-84767712D01*
X156667712Y-84643656D01*
X156759814Y-84494334D01*
X156814999Y-84327797D01*
X156825500Y-84225009D01*
X156825499Y-83809449D01*
X156845183Y-83742412D01*
X156897987Y-83696657D01*
X156967146Y-83686713D01*
X157030702Y-83715738D01*
X157037180Y-83721770D01*
X157144194Y-83828784D01*
X157154019Y-83841048D01*
X157154240Y-83840866D01*
X157159210Y-83846873D01*
X157159213Y-83846876D01*
X157159214Y-83846877D01*
X157209651Y-83894241D01*
X157230530Y-83915120D01*
X157236004Y-83919366D01*
X157240442Y-83923156D01*
X157274418Y-83955062D01*
X157291973Y-83964713D01*
X157308231Y-83975392D01*
X157324064Y-83987674D01*
X157346015Y-83997172D01*
X157366837Y-84006183D01*
X157372081Y-84008752D01*
X157412908Y-84031197D01*
X157432312Y-84036179D01*
X157450710Y-84042478D01*
X157469105Y-84050438D01*
X157515129Y-84057726D01*
X157520832Y-84058907D01*
X157565981Y-84070500D01*
X157586016Y-84070500D01*
X157605413Y-84072026D01*
X157625196Y-84075160D01*
X157671583Y-84070775D01*
X157677422Y-84070500D01*
X160524501Y-84070500D01*
X160591540Y-84090185D01*
X160637295Y-84142989D01*
X160648501Y-84194500D01*
X160648501Y-84292976D01*
X160654908Y-84352583D01*
X160705202Y-84487428D01*
X160705206Y-84487435D01*
X160791452Y-84602644D01*
X160791455Y-84602647D01*
X160906664Y-84688893D01*
X160906671Y-84688897D01*
X161041517Y-84739191D01*
X161041516Y-84739191D01*
X161048444Y-84739935D01*
X161101127Y-84745600D01*
X164498872Y-84745599D01*
X164558483Y-84739191D01*
X164693331Y-84688896D01*
X164808546Y-84602646D01*
X164894796Y-84487431D01*
X164945091Y-84352583D01*
X164951500Y-84292973D01*
X164951499Y-82718099D01*
X164971184Y-82651061D01*
X165023987Y-82605306D01*
X165075499Y-82594100D01*
X167905400Y-82594100D01*
X167905400Y-75405900D01*
X167891681Y-75392181D01*
X167858196Y-75330858D01*
X167863180Y-75261166D01*
X167905052Y-75205233D01*
X167970516Y-75180816D01*
X167979362Y-75180500D01*
X168444548Y-75180500D01*
X168511587Y-75200185D01*
X168532229Y-75216819D01*
X168938181Y-75622771D01*
X168971666Y-75684094D01*
X168974500Y-75710452D01*
X168974500Y-84289545D01*
X168954815Y-84356584D01*
X168938181Y-84377226D01*
X167874244Y-85441163D01*
X167812921Y-85474648D01*
X167743229Y-85469664D01*
X167721467Y-85459021D01*
X167569340Y-85365189D01*
X167569335Y-85365187D01*
X167569334Y-85365186D01*
X167402797Y-85310001D01*
X167402795Y-85310000D01*
X167300010Y-85299500D01*
X166299998Y-85299500D01*
X166299980Y-85299501D01*
X166197203Y-85310000D01*
X166197200Y-85310001D01*
X166030668Y-85365185D01*
X166030663Y-85365187D01*
X165881342Y-85457289D01*
X165757289Y-85581342D01*
X165665187Y-85730663D01*
X165665185Y-85730668D01*
X165638823Y-85810223D01*
X165610001Y-85897203D01*
X165610001Y-85897204D01*
X165610000Y-85897204D01*
X165599500Y-85999983D01*
X165599500Y-86015547D01*
X165579815Y-86082586D01*
X165527011Y-86128341D01*
X165457853Y-86138285D01*
X165394297Y-86109260D01*
X165387819Y-86103228D01*
X165300803Y-86016212D01*
X165290980Y-86003950D01*
X165290759Y-86004134D01*
X165285786Y-85998123D01*
X165235364Y-85950773D01*
X165214843Y-85930251D01*
X165184821Y-85881577D01*
X165166189Y-85825350D01*
X165134814Y-85730666D01*
X165042712Y-85581344D01*
X164918656Y-85457288D01*
X164783441Y-85373887D01*
X164769336Y-85365187D01*
X164769331Y-85365185D01*
X164754882Y-85360397D01*
X164602797Y-85310001D01*
X164602795Y-85310000D01*
X164500010Y-85299500D01*
X163499998Y-85299500D01*
X163499980Y-85299501D01*
X163397203Y-85310000D01*
X163397200Y-85310001D01*
X163230668Y-85365185D01*
X163230663Y-85365187D01*
X163081342Y-85457289D01*
X162957289Y-85581342D01*
X162865187Y-85730663D01*
X162865185Y-85730668D01*
X162838823Y-85810223D01*
X162810001Y-85897203D01*
X162810001Y-85897204D01*
X162810000Y-85897204D01*
X162799500Y-85999983D01*
X162799500Y-86800001D01*
X162799501Y-86800019D01*
X162810000Y-86902796D01*
X162810001Y-86902799D01*
X162863017Y-87062787D01*
X162865186Y-87069334D01*
X162957288Y-87218656D01*
X163030950Y-87292318D01*
X163050951Y-87312319D01*
X163084435Y-87373643D01*
X163079451Y-87443334D01*
X163050951Y-87487680D01*
X162957288Y-87581344D01*
X162875335Y-87714213D01*
X162874481Y-87715597D01*
X162822533Y-87762321D01*
X162768942Y-87774500D01*
X162431058Y-87774500D01*
X162364019Y-87754815D01*
X162325519Y-87715597D01*
X162324666Y-87714214D01*
X162242712Y-87581344D01*
X162148695Y-87487327D01*
X162115210Y-87426004D01*
X162120194Y-87356312D01*
X162148695Y-87311964D01*
X162242317Y-87218342D01*
X162334356Y-87069124D01*
X162334358Y-87069119D01*
X162389505Y-86902697D01*
X162389506Y-86902690D01*
X162399999Y-86799986D01*
X162400000Y-86799973D01*
X162400000Y-86650000D01*
X160000001Y-86650000D01*
X160000001Y-86799986D01*
X160010494Y-86902697D01*
X160065641Y-87069119D01*
X160065643Y-87069124D01*
X160157684Y-87218345D01*
X160251304Y-87311965D01*
X160284789Y-87373288D01*
X160279805Y-87442980D01*
X160251305Y-87487327D01*
X160157287Y-87581345D01*
X160065187Y-87730663D01*
X160065185Y-87730668D01*
X160048617Y-87780668D01*
X160010001Y-87897203D01*
X160010001Y-87897204D01*
X160010000Y-87897204D01*
X159999500Y-87999983D01*
X159999500Y-88800001D01*
X159999501Y-88800019D01*
X160010000Y-88902796D01*
X160010001Y-88902799D01*
X160065185Y-89069331D01*
X160065187Y-89069336D01*
X160080604Y-89094331D01*
X160157288Y-89218656D01*
X160281344Y-89342712D01*
X160422051Y-89429500D01*
X160430668Y-89434815D01*
X160451110Y-89441588D01*
X160489502Y-89454310D01*
X160546947Y-89494081D01*
X160573772Y-89558596D01*
X160574500Y-89572016D01*
X160574500Y-90489547D01*
X160554815Y-90556586D01*
X160538181Y-90577228D01*
X158577228Y-92538181D01*
X158515905Y-92571666D01*
X158489547Y-92574500D01*
X154710452Y-92574500D01*
X154643413Y-92554815D01*
X154622771Y-92538181D01*
X152731819Y-90647228D01*
X152698334Y-90585905D01*
X152695500Y-90559547D01*
X152695500Y-89429500D01*
X152715185Y-89362461D01*
X152767989Y-89316706D01*
X152819500Y-89305500D01*
X153017713Y-89305500D01*
X153017720Y-89305500D01*
X153130236Y-89290687D01*
X153270233Y-89232698D01*
X153390451Y-89140451D01*
X153482698Y-89020233D01*
X153540687Y-88880236D01*
X153555500Y-88767720D01*
X153555500Y-88339452D01*
X153575185Y-88272413D01*
X153627989Y-88226658D01*
X153697147Y-88216714D01*
X153760703Y-88245739D01*
X153767175Y-88251765D01*
X154115410Y-88600001D01*
X154336697Y-88821288D01*
X154346516Y-88833544D01*
X154346738Y-88833362D01*
X154355392Y-88843822D01*
X154382960Y-88908023D01*
X154383210Y-88910265D01*
X154385001Y-88927798D01*
X154421412Y-89037679D01*
X154440186Y-89094334D01*
X154532288Y-89243656D01*
X154656344Y-89367712D01*
X154805666Y-89459814D01*
X154889505Y-89487595D01*
X154946948Y-89527366D01*
X154973772Y-89591882D01*
X154974500Y-89605300D01*
X154974500Y-89729091D01*
X154954815Y-89796130D01*
X154910731Y-89834641D01*
X154911813Y-89836395D01*
X154905667Y-89840185D01*
X154905666Y-89840186D01*
X154840600Y-89880319D01*
X154756342Y-89932289D01*
X154632289Y-90056342D01*
X154540187Y-90205663D01*
X154540185Y-90205668D01*
X154529770Y-90237099D01*
X154485001Y-90372203D01*
X154485001Y-90372204D01*
X154485000Y-90372204D01*
X154474500Y-90474983D01*
X154474500Y-91525001D01*
X154474501Y-91525019D01*
X154485000Y-91627796D01*
X154485001Y-91627799D01*
X154502035Y-91679202D01*
X154540186Y-91794334D01*
X154632288Y-91943656D01*
X154756344Y-92067712D01*
X154905666Y-92159814D01*
X155072203Y-92214999D01*
X155174991Y-92225500D01*
X155950008Y-92225499D01*
X155950016Y-92225498D01*
X155950019Y-92225498D01*
X156006302Y-92219748D01*
X156052797Y-92214999D01*
X156219334Y-92159814D01*
X156368656Y-92067712D01*
X156492712Y-91943656D01*
X156494461Y-91940819D01*
X156496169Y-91939283D01*
X156497193Y-91937989D01*
X156497414Y-91938163D01*
X156546406Y-91894096D01*
X156615368Y-91882872D01*
X156679451Y-91910713D01*
X156705537Y-91940817D01*
X156707288Y-91943656D01*
X156831344Y-92067712D01*
X156980666Y-92159814D01*
X157147203Y-92214999D01*
X157249991Y-92225500D01*
X158025008Y-92225499D01*
X158025016Y-92225498D01*
X158025019Y-92225498D01*
X158081302Y-92219748D01*
X158127797Y-92214999D01*
X158294334Y-92159814D01*
X158443656Y-92067712D01*
X158567712Y-91943656D01*
X158659814Y-91794334D01*
X158714999Y-91627797D01*
X158725500Y-91525009D01*
X158725499Y-90847951D01*
X158745183Y-90780913D01*
X158761813Y-90760276D01*
X158783788Y-90738301D01*
X158796042Y-90728486D01*
X158795859Y-90728264D01*
X158801866Y-90723292D01*
X158801877Y-90723286D01*
X158840589Y-90682062D01*
X158849227Y-90672864D01*
X158859671Y-90662418D01*
X158870120Y-90651971D01*
X158874379Y-90646478D01*
X158878152Y-90642061D01*
X158910062Y-90608082D01*
X158919715Y-90590520D01*
X158930389Y-90574270D01*
X158942673Y-90558436D01*
X158961180Y-90515667D01*
X158963749Y-90510424D01*
X158975226Y-90489547D01*
X158986197Y-90469592D01*
X158991177Y-90450191D01*
X158997478Y-90431788D01*
X159005438Y-90413396D01*
X159012730Y-90367349D01*
X159013911Y-90361652D01*
X159025500Y-90316519D01*
X159025500Y-90296482D01*
X159027027Y-90277082D01*
X159030160Y-90257304D01*
X159025775Y-90210915D01*
X159025500Y-90205077D01*
X159025500Y-89572016D01*
X159045185Y-89504977D01*
X159097989Y-89459222D01*
X159110488Y-89454313D01*
X159169334Y-89434814D01*
X159318656Y-89342712D01*
X159442712Y-89218656D01*
X159534814Y-89069334D01*
X159589999Y-88902797D01*
X159600500Y-88800009D01*
X159600499Y-87999992D01*
X159599454Y-87989766D01*
X159589999Y-87897203D01*
X159589998Y-87897200D01*
X159567537Y-87829418D01*
X159534814Y-87730666D01*
X159442712Y-87581344D01*
X159348695Y-87487327D01*
X159315210Y-87426004D01*
X159320194Y-87356312D01*
X159348695Y-87311964D01*
X159442317Y-87218342D01*
X159534356Y-87069124D01*
X159534358Y-87069119D01*
X159589505Y-86902697D01*
X159589506Y-86902690D01*
X159599999Y-86799986D01*
X159600000Y-86799973D01*
X159600000Y-86650000D01*
X157200001Y-86650000D01*
X157200001Y-86799986D01*
X157210494Y-86902697D01*
X157265641Y-87069119D01*
X157265643Y-87069124D01*
X157357684Y-87218345D01*
X157451304Y-87311965D01*
X157484789Y-87373288D01*
X157479805Y-87442980D01*
X157451305Y-87487327D01*
X157357287Y-87581345D01*
X157265187Y-87730663D01*
X157265185Y-87730668D01*
X157248617Y-87780668D01*
X157210001Y-87897203D01*
X157210001Y-87897204D01*
X157210000Y-87897204D01*
X157199500Y-87999983D01*
X157199500Y-88800001D01*
X157199501Y-88800019D01*
X157210000Y-88902796D01*
X157210001Y-88902799D01*
X157265185Y-89069331D01*
X157265187Y-89069336D01*
X157280604Y-89094331D01*
X157357288Y-89218656D01*
X157481344Y-89342712D01*
X157622051Y-89429500D01*
X157630668Y-89434815D01*
X157651110Y-89441588D01*
X157689502Y-89454310D01*
X157746947Y-89494081D01*
X157773772Y-89558596D01*
X157774500Y-89572016D01*
X157774500Y-89650500D01*
X157754815Y-89717539D01*
X157702011Y-89763294D01*
X157650500Y-89774500D01*
X157249998Y-89774500D01*
X157249980Y-89774501D01*
X157147203Y-89785000D01*
X157147200Y-89785001D01*
X156980668Y-89840185D01*
X156980663Y-89840187D01*
X156831342Y-89932289D01*
X156707285Y-90056346D01*
X156705537Y-90059182D01*
X156703829Y-90060717D01*
X156702807Y-90062011D01*
X156702585Y-90061836D01*
X156653589Y-90105905D01*
X156584626Y-90117126D01*
X156520544Y-90089282D01*
X156494463Y-90059182D01*
X156492714Y-90056346D01*
X156368656Y-89932288D01*
X156368652Y-89932285D01*
X156284403Y-89880319D01*
X156237678Y-89828371D01*
X156225500Y-89774781D01*
X156225500Y-89605300D01*
X156245185Y-89538261D01*
X156297989Y-89492506D01*
X156310482Y-89487599D01*
X156394334Y-89459814D01*
X156543656Y-89367712D01*
X156667712Y-89243656D01*
X156759814Y-89094334D01*
X156814999Y-88927797D01*
X156825500Y-88825009D01*
X156825499Y-88049992D01*
X156820391Y-87999992D01*
X156814999Y-87947203D01*
X156814998Y-87947200D01*
X156798431Y-87897204D01*
X156759814Y-87780666D01*
X156667712Y-87631344D01*
X156543656Y-87507288D01*
X156540342Y-87505243D01*
X156538546Y-87503248D01*
X156537989Y-87502807D01*
X156538064Y-87502711D01*
X156493618Y-87453297D01*
X156482397Y-87384334D01*
X156510240Y-87320252D01*
X156540348Y-87294165D01*
X156543342Y-87292318D01*
X156667315Y-87168345D01*
X156759356Y-87019124D01*
X156759358Y-87019119D01*
X156814505Y-86852697D01*
X156814506Y-86852690D01*
X156824999Y-86749986D01*
X156825000Y-86749973D01*
X156825000Y-86612500D01*
X154375001Y-86612500D01*
X154375001Y-86749971D01*
X154375002Y-86749994D01*
X154378312Y-86782402D01*
X154365541Y-86851095D01*
X154317659Y-86901978D01*
X154249869Y-86918897D01*
X154183693Y-86896479D01*
X154167273Y-86882682D01*
X154135803Y-86851212D01*
X154125980Y-86838950D01*
X154125759Y-86839134D01*
X154120786Y-86833123D01*
X154100056Y-86813656D01*
X154070364Y-86785773D01*
X154059919Y-86775328D01*
X154049475Y-86764883D01*
X154043986Y-86760625D01*
X154039561Y-86756847D01*
X154005582Y-86724938D01*
X154005580Y-86724936D01*
X154005577Y-86724935D01*
X153988029Y-86715288D01*
X153971763Y-86704604D01*
X153955936Y-86692327D01*
X153955935Y-86692326D01*
X153955933Y-86692325D01*
X153913168Y-86673818D01*
X153907922Y-86671248D01*
X153867093Y-86648803D01*
X153867092Y-86648802D01*
X153847693Y-86643822D01*
X153829281Y-86637518D01*
X153810898Y-86629562D01*
X153810892Y-86629560D01*
X153764874Y-86622272D01*
X153759152Y-86621087D01*
X153714021Y-86609500D01*
X153714019Y-86609500D01*
X153693984Y-86609500D01*
X153674586Y-86607973D01*
X153667162Y-86606797D01*
X153654805Y-86604840D01*
X153654800Y-86604839D01*
X153626450Y-86607519D01*
X153557856Y-86594229D01*
X153507336Y-86545964D01*
X153490930Y-86478047D01*
X153500223Y-86436616D01*
X153540199Y-86340104D01*
X153554999Y-86227697D01*
X153555000Y-86227683D01*
X153555000Y-86215000D01*
X150585000Y-86215000D01*
X150585000Y-86227697D01*
X150599800Y-86340104D01*
X150599801Y-86340108D01*
X150657737Y-86479981D01*
X150691594Y-86524104D01*
X150716788Y-86589274D01*
X150702749Y-86657718D01*
X150691594Y-86675076D01*
X150657302Y-86719766D01*
X150657300Y-86719769D01*
X150599313Y-86859763D01*
X150599313Y-86859764D01*
X150584500Y-86972272D01*
X150584500Y-87497727D01*
X150599313Y-87610235D01*
X150599313Y-87610236D01*
X150657301Y-87750233D01*
X150691279Y-87794514D01*
X150716473Y-87859684D01*
X150702434Y-87928129D01*
X150691279Y-87945486D01*
X150657301Y-87989766D01*
X150599313Y-88129763D01*
X150599313Y-88129764D01*
X150584500Y-88242272D01*
X150584500Y-88767727D01*
X150599313Y-88880235D01*
X150599313Y-88880236D01*
X150656648Y-89018656D01*
X150657302Y-89020233D01*
X150749549Y-89140451D01*
X150869767Y-89232698D01*
X151009764Y-89290687D01*
X151122280Y-89305500D01*
X151320500Y-89305500D01*
X151387539Y-89325185D01*
X151433294Y-89377989D01*
X151444500Y-89429500D01*
X151444500Y-90787255D01*
X151442775Y-90802872D01*
X151443061Y-90802899D01*
X151442326Y-90810665D01*
X151444500Y-90879814D01*
X151444500Y-90909343D01*
X151444501Y-90909360D01*
X151445368Y-90916231D01*
X151445826Y-90922050D01*
X151447290Y-90968624D01*
X151447291Y-90968627D01*
X151452880Y-90987867D01*
X151456824Y-91006911D01*
X151459336Y-91026792D01*
X151476490Y-91070119D01*
X151478382Y-91075647D01*
X151488494Y-91110452D01*
X151491382Y-91120390D01*
X151501063Y-91136761D01*
X151501580Y-91137634D01*
X151510138Y-91155103D01*
X151517514Y-91173732D01*
X151544898Y-91211423D01*
X151548106Y-91216307D01*
X151571827Y-91256416D01*
X151571833Y-91256424D01*
X151585990Y-91270580D01*
X151598627Y-91285375D01*
X151610406Y-91301587D01*
X151627069Y-91315372D01*
X151646309Y-91331288D01*
X151650620Y-91335210D01*
X152853591Y-92538181D01*
X153899194Y-93583784D01*
X153909019Y-93596048D01*
X153909240Y-93595866D01*
X153914210Y-93601873D01*
X153914213Y-93601876D01*
X153914214Y-93601877D01*
X153964651Y-93649241D01*
X153985530Y-93670120D01*
X153991004Y-93674366D01*
X153995442Y-93678156D01*
X154029418Y-93710062D01*
X154029422Y-93710064D01*
X154046973Y-93719713D01*
X154063231Y-93730392D01*
X154079064Y-93742674D01*
X154101015Y-93752172D01*
X154121837Y-93761183D01*
X154127081Y-93763752D01*
X154167908Y-93786197D01*
X154187312Y-93791179D01*
X154205710Y-93797478D01*
X154224105Y-93805438D01*
X154270129Y-93812726D01*
X154275832Y-93813907D01*
X154320981Y-93825500D01*
X154341016Y-93825500D01*
X154360413Y-93827026D01*
X154380196Y-93830160D01*
X154426583Y-93825775D01*
X154432422Y-93825500D01*
X158717257Y-93825500D01*
X158732877Y-93827224D01*
X158732904Y-93826939D01*
X158740660Y-93827671D01*
X158740667Y-93827673D01*
X158809814Y-93825500D01*
X158839350Y-93825500D01*
X158846228Y-93824630D01*
X158852041Y-93824172D01*
X158898627Y-93822709D01*
X158917869Y-93817117D01*
X158936912Y-93813174D01*
X158956792Y-93810664D01*
X159000122Y-93793507D01*
X159005646Y-93791617D01*
X159009396Y-93790527D01*
X159050390Y-93778618D01*
X159067629Y-93768422D01*
X159085103Y-93759862D01*
X159103727Y-93752488D01*
X159103727Y-93752487D01*
X159103732Y-93752486D01*
X159141449Y-93725082D01*
X159146305Y-93721892D01*
X159186420Y-93698170D01*
X159200589Y-93683999D01*
X159215379Y-93671368D01*
X159231587Y-93659594D01*
X159261299Y-93623676D01*
X159265212Y-93619376D01*
X159566789Y-93317799D01*
X170949264Y-93317799D01*
X170949264Y-95427039D01*
X181627157Y-95427039D01*
X181627157Y-93317799D01*
X170949264Y-93317799D01*
X159566789Y-93317799D01*
X161583786Y-91300802D01*
X161596048Y-91290980D01*
X161595865Y-91290759D01*
X161601867Y-91285792D01*
X161601877Y-91285786D01*
X161649241Y-91235348D01*
X161670120Y-91214470D01*
X161674373Y-91208986D01*
X161678150Y-91204563D01*
X161710062Y-91170582D01*
X161719714Y-91153023D01*
X161730389Y-91136772D01*
X161742674Y-91120936D01*
X161761186Y-91078152D01*
X161763742Y-91072935D01*
X161786197Y-91032092D01*
X161791180Y-91012680D01*
X161797477Y-90994291D01*
X161805438Y-90975895D01*
X161812729Y-90929853D01*
X161813908Y-90924162D01*
X161825500Y-90879019D01*
X161825500Y-90858982D01*
X161827027Y-90839582D01*
X161830160Y-90819804D01*
X161825775Y-90773415D01*
X161825500Y-90767577D01*
X161825500Y-90237099D01*
X162902506Y-90237099D01*
X162902506Y-92648385D01*
X181935927Y-92648385D01*
X181935927Y-90237099D01*
X162902506Y-90237099D01*
X161825500Y-90237099D01*
X161825500Y-89572016D01*
X161845185Y-89504977D01*
X161897989Y-89459222D01*
X161910488Y-89454313D01*
X161969334Y-89434814D01*
X162118656Y-89342712D01*
X162242712Y-89218656D01*
X162325519Y-89084402D01*
X162377467Y-89037679D01*
X162431058Y-89025500D01*
X162768942Y-89025500D01*
X162835981Y-89045185D01*
X162874479Y-89084401D01*
X162957288Y-89218656D01*
X163081344Y-89342712D01*
X163230666Y-89434814D01*
X163397203Y-89489999D01*
X163499991Y-89500500D01*
X164500008Y-89500499D01*
X164500016Y-89500498D01*
X164500019Y-89500498D01*
X164556302Y-89494748D01*
X164602797Y-89489999D01*
X164769334Y-89434814D01*
X164918656Y-89342712D01*
X165042712Y-89218656D01*
X165134814Y-89069334D01*
X165189999Y-88902797D01*
X165200500Y-88800009D01*
X165200499Y-87999992D01*
X165200092Y-87996011D01*
X165212856Y-87927320D01*
X165260732Y-87876431D01*
X165328520Y-87859505D01*
X165394699Y-87881915D01*
X165411130Y-87895720D01*
X165563181Y-88047771D01*
X165596666Y-88109094D01*
X165599500Y-88135452D01*
X165599500Y-88800001D01*
X165599501Y-88800019D01*
X165610000Y-88902796D01*
X165610001Y-88902799D01*
X165665185Y-89069331D01*
X165665187Y-89069336D01*
X165680604Y-89094331D01*
X165757288Y-89218656D01*
X165881344Y-89342712D01*
X166030666Y-89434814D01*
X166197203Y-89489999D01*
X166299991Y-89500500D01*
X167300008Y-89500499D01*
X167300016Y-89500498D01*
X167300019Y-89500498D01*
X167356302Y-89494748D01*
X167402797Y-89489999D01*
X167569334Y-89434814D01*
X167718656Y-89342712D01*
X167842712Y-89218656D01*
X167934814Y-89069334D01*
X167989999Y-88902797D01*
X168000500Y-88800009D01*
X168000499Y-87999992D01*
X167999454Y-87989766D01*
X167989999Y-87897203D01*
X167989998Y-87897200D01*
X167967537Y-87829418D01*
X167934814Y-87730666D01*
X167842712Y-87581344D01*
X167749048Y-87487680D01*
X167715564Y-87426358D01*
X167720548Y-87356666D01*
X167749049Y-87312319D01*
X167769050Y-87292318D01*
X167842712Y-87218656D01*
X167934814Y-87069334D01*
X167935256Y-87067999D01*
X167935807Y-87067202D01*
X167937867Y-87062787D01*
X167938621Y-87063138D01*
X167975025Y-87010553D01*
X168018368Y-86987920D01*
X168050390Y-86978618D01*
X168067629Y-86968422D01*
X168085103Y-86959862D01*
X168103727Y-86952488D01*
X168103727Y-86952487D01*
X168103732Y-86952486D01*
X168141449Y-86925082D01*
X168146305Y-86921892D01*
X168186420Y-86898170D01*
X168200589Y-86883999D01*
X168215379Y-86871368D01*
X168231587Y-86859594D01*
X168261299Y-86823676D01*
X168265212Y-86819376D01*
X169983787Y-85100801D01*
X169996042Y-85090986D01*
X169995859Y-85090764D01*
X170001866Y-85085792D01*
X170001877Y-85085786D01*
X170032775Y-85052882D01*
X170049227Y-85035364D01*
X170059671Y-85024918D01*
X170070120Y-85014471D01*
X170074379Y-85008978D01*
X170078152Y-85004561D01*
X170110062Y-84970582D01*
X170119713Y-84953024D01*
X170130396Y-84936761D01*
X170142673Y-84920936D01*
X170161185Y-84878153D01*
X170163738Y-84872941D01*
X170186197Y-84832092D01*
X170191180Y-84812680D01*
X170197481Y-84794280D01*
X170205437Y-84775896D01*
X170212729Y-84729852D01*
X170213906Y-84724171D01*
X170225500Y-84679019D01*
X170225500Y-84658982D01*
X170227027Y-84639582D01*
X170227584Y-84636066D01*
X170230160Y-84619804D01*
X170228289Y-84600007D01*
X171395280Y-84600007D01*
X171414140Y-84887757D01*
X171414144Y-84887784D01*
X171470402Y-85170615D01*
X171470407Y-85170635D01*
X171563100Y-85443702D01*
X171563104Y-85443712D01*
X171690653Y-85702356D01*
X171850873Y-85942141D01*
X171850878Y-85942147D01*
X171875837Y-85970607D01*
X172686333Y-85160111D01*
X172747656Y-85126626D01*
X172817347Y-85131610D01*
X172873281Y-85173482D01*
X172874332Y-85174907D01*
X172903308Y-85214790D01*
X172908805Y-85222355D01*
X173028857Y-85330451D01*
X173033963Y-85335048D01*
X173070612Y-85394535D01*
X173069281Y-85464392D01*
X173038672Y-85514879D01*
X172229391Y-86324161D01*
X172229391Y-86324162D01*
X172257852Y-86349121D01*
X172257858Y-86349126D01*
X172497643Y-86509346D01*
X172756287Y-86636895D01*
X172756297Y-86636899D01*
X173029364Y-86729592D01*
X173029384Y-86729597D01*
X173312215Y-86785855D01*
X173312242Y-86785859D01*
X173599993Y-86804720D01*
X173600007Y-86804720D01*
X173887757Y-86785859D01*
X173887784Y-86785855D01*
X174170615Y-86729597D01*
X174170635Y-86729592D01*
X174443702Y-86636899D01*
X174443712Y-86636895D01*
X174702356Y-86509346D01*
X174942146Y-86349122D01*
X174970607Y-86324161D01*
X174970607Y-86324160D01*
X174161327Y-85514880D01*
X174127842Y-85453557D01*
X174132826Y-85383865D01*
X174166036Y-85335049D01*
X174171644Y-85330000D01*
X174193856Y-85310000D01*
X174291190Y-85222360D01*
X174291191Y-85222358D01*
X174291195Y-85222355D01*
X174325668Y-85174907D01*
X174380996Y-85132242D01*
X174450610Y-85126263D01*
X174512405Y-85158868D01*
X174513666Y-85160112D01*
X175324161Y-85970608D01*
X175324162Y-85970607D01*
X175349117Y-85942153D01*
X175349121Y-85942148D01*
X175509346Y-85702356D01*
X175636895Y-85443712D01*
X175636899Y-85443702D01*
X175729592Y-85170635D01*
X175729597Y-85170615D01*
X175785855Y-84887784D01*
X175785859Y-84887757D01*
X175804720Y-84600007D01*
X175804720Y-84599992D01*
X175785859Y-84312242D01*
X175785855Y-84312215D01*
X175729597Y-84029384D01*
X175729592Y-84029364D01*
X175636899Y-83756297D01*
X175636895Y-83756287D01*
X175509346Y-83497643D01*
X175349126Y-83257858D01*
X175349121Y-83257852D01*
X175324161Y-83229391D01*
X174513665Y-84039887D01*
X174452342Y-84073372D01*
X174382650Y-84068388D01*
X174326717Y-84026516D01*
X174325762Y-84025223D01*
X174291195Y-83977645D01*
X174288697Y-83975396D01*
X174166035Y-83864950D01*
X174129386Y-83805463D01*
X174130717Y-83735606D01*
X174161326Y-83685119D01*
X174970607Y-82875837D01*
X174970607Y-82875836D01*
X174942147Y-82850878D01*
X174942141Y-82850873D01*
X174702356Y-82690653D01*
X174443712Y-82563104D01*
X174443702Y-82563100D01*
X174170635Y-82470407D01*
X174170615Y-82470402D01*
X173887784Y-82414144D01*
X173887757Y-82414140D01*
X173600007Y-82395280D01*
X173599993Y-82395280D01*
X173312242Y-82414140D01*
X173312215Y-82414144D01*
X173029384Y-82470402D01*
X173029364Y-82470407D01*
X172756297Y-82563100D01*
X172756287Y-82563104D01*
X172497643Y-82690653D01*
X172257853Y-82850876D01*
X172257847Y-82850881D01*
X172229391Y-82875835D01*
X172229391Y-82875838D01*
X173038672Y-83685119D01*
X173072157Y-83746442D01*
X173067173Y-83816134D01*
X173033964Y-83864950D01*
X172908805Y-83977644D01*
X172874331Y-84025093D01*
X172819000Y-84067758D01*
X172749387Y-84073736D01*
X172687592Y-84041129D01*
X172686333Y-84039887D01*
X171875838Y-83229391D01*
X171875835Y-83229391D01*
X171850881Y-83257847D01*
X171850876Y-83257853D01*
X171690653Y-83497643D01*
X171563104Y-83756287D01*
X171563100Y-83756297D01*
X171470407Y-84029364D01*
X171470402Y-84029384D01*
X171414144Y-84312215D01*
X171414140Y-84312242D01*
X171395280Y-84599992D01*
X171395280Y-84600007D01*
X170228289Y-84600007D01*
X170225775Y-84573415D01*
X170225500Y-84567577D01*
X170225500Y-76209452D01*
X170245185Y-76142413D01*
X170297989Y-76096658D01*
X170367147Y-76086714D01*
X170430703Y-76115739D01*
X170437181Y-76121771D01*
X171601819Y-77286409D01*
X171635304Y-77347732D01*
X171630320Y-77417424D01*
X171625351Y-77428933D01*
X171562646Y-77556087D01*
X171562639Y-77556102D01*
X171469921Y-77829239D01*
X171469917Y-77829254D01*
X171416650Y-78097048D01*
X171413644Y-78112161D01*
X171412877Y-78123858D01*
X171394778Y-78400000D01*
X171413644Y-78687837D01*
X171413646Y-78687849D01*
X171469917Y-78970745D01*
X171469921Y-78970760D01*
X171562642Y-79243905D01*
X171690219Y-79502606D01*
X171690223Y-79502613D01*
X171850478Y-79742452D01*
X172040672Y-79959327D01*
X172257547Y-80149521D01*
X172371258Y-80225500D01*
X172497389Y-80309778D01*
X172756098Y-80437359D01*
X173029247Y-80530081D01*
X173312161Y-80586356D01*
X173600000Y-80605222D01*
X173887839Y-80586356D01*
X174170753Y-80530081D01*
X174443902Y-80437359D01*
X174702611Y-80309778D01*
X174942454Y-80149520D01*
X175159327Y-79959327D01*
X175349520Y-79742454D01*
X175509778Y-79502611D01*
X175637359Y-79243902D01*
X175730081Y-78970753D01*
X175786356Y-78687839D01*
X175805222Y-78400000D01*
X175789007Y-78152609D01*
X175804265Y-78084426D01*
X175853964Y-78035316D01*
X175912742Y-78020500D01*
X178643867Y-78020500D01*
X178710906Y-78040185D01*
X178756661Y-78092989D01*
X178758428Y-78097048D01*
X178769532Y-78123856D01*
X178769533Y-78123858D01*
X178901160Y-78338653D01*
X178901161Y-78338656D01*
X178901164Y-78338659D01*
X179064776Y-78530224D01*
X179112178Y-78570709D01*
X179112179Y-78570710D01*
X179150372Y-78629217D01*
X179150870Y-78699085D01*
X179113516Y-78758131D01*
X179112179Y-78759290D01*
X179064776Y-78799776D01*
X178901161Y-78991343D01*
X178901160Y-78991346D01*
X178769533Y-79206140D01*
X178673126Y-79438889D01*
X178614317Y-79683848D01*
X178594551Y-79935000D01*
X178614317Y-80186151D01*
X178673126Y-80431110D01*
X178769533Y-80663859D01*
X178901160Y-80878653D01*
X178901161Y-80878656D01*
X178901164Y-80878659D01*
X179064776Y-81070224D01*
X179256341Y-81233836D01*
X179388585Y-81314875D01*
X179411474Y-81332920D01*
X179906833Y-81828280D01*
X179940318Y-81889603D01*
X179935334Y-81959295D01*
X179897408Y-82012148D01*
X179794262Y-82096064D01*
X179794258Y-82096069D01*
X179743947Y-82167344D01*
X179689205Y-82210761D01*
X179619680Y-82217690D01*
X179557445Y-82185931D01*
X179554962Y-82183516D01*
X178902266Y-81530820D01*
X178901568Y-81531637D01*
X178769980Y-81746368D01*
X178673603Y-81979043D01*
X178614812Y-82223927D01*
X178595052Y-82475000D01*
X178614812Y-82726072D01*
X178673603Y-82970956D01*
X178769979Y-83203629D01*
X178851185Y-83336145D01*
X178869429Y-83403590D01*
X178848312Y-83470193D01*
X178819769Y-83500200D01*
X178742809Y-83557812D01*
X178656649Y-83672906D01*
X178656645Y-83672913D01*
X178606403Y-83807620D01*
X178606401Y-83807627D01*
X178600000Y-83867155D01*
X178600000Y-84765000D01*
X179533044Y-84765000D01*
X179600083Y-84784685D01*
X179645838Y-84837489D01*
X179656755Y-84897463D01*
X179656441Y-84902045D01*
X179656441Y-84902047D01*
X179654067Y-84936755D01*
X179647322Y-85035364D01*
X179646123Y-85052886D01*
X179656081Y-85100806D01*
X179659191Y-85115772D01*
X179653557Y-85185414D01*
X179611166Y-85240955D01*
X179545477Y-85264761D01*
X179537784Y-85265000D01*
X178600000Y-85265000D01*
X178600000Y-86162844D01*
X178606401Y-86222372D01*
X178606403Y-86222379D01*
X178656645Y-86357086D01*
X178656649Y-86357093D01*
X178742809Y-86472187D01*
X178742812Y-86472190D01*
X178857906Y-86558350D01*
X178857913Y-86558354D01*
X178992620Y-86608596D01*
X178992627Y-86608598D01*
X179052155Y-86614999D01*
X179052172Y-86615000D01*
X179950000Y-86615000D01*
X179950000Y-85679652D01*
X179969685Y-85612613D01*
X180022489Y-85566858D01*
X180091647Y-85556914D01*
X180107447Y-85560248D01*
X180124404Y-85565000D01*
X180124406Y-85565000D01*
X180237622Y-85565000D01*
X180309116Y-85555173D01*
X180378210Y-85565545D01*
X180430729Y-85611627D01*
X180450000Y-85678018D01*
X180450000Y-86615000D01*
X181347828Y-86615000D01*
X181347844Y-86614999D01*
X181407372Y-86608598D01*
X181407379Y-86608596D01*
X181542086Y-86558354D01*
X181542093Y-86558350D01*
X181657187Y-86472190D01*
X181657190Y-86472187D01*
X181743350Y-86357093D01*
X181743354Y-86357086D01*
X181793596Y-86222379D01*
X181793598Y-86222372D01*
X181799999Y-86162844D01*
X181800000Y-86162827D01*
X181800000Y-85265000D01*
X180866956Y-85265000D01*
X180799917Y-85245315D01*
X180754162Y-85192511D01*
X180743245Y-85132537D01*
X180743559Y-85127953D01*
X180753877Y-84977114D01*
X180740809Y-84914227D01*
X180746443Y-84844586D01*
X180788834Y-84789045D01*
X180854523Y-84765239D01*
X180862216Y-84765000D01*
X181800000Y-84765000D01*
X181800000Y-83867172D01*
X181799999Y-83867155D01*
X181793598Y-83807627D01*
X181793596Y-83807620D01*
X181743354Y-83672913D01*
X181743350Y-83672906D01*
X181657190Y-83557812D01*
X181580230Y-83500199D01*
X181538360Y-83444265D01*
X181533376Y-83374573D01*
X181548815Y-83336143D01*
X181630019Y-83203631D01*
X181726396Y-82970956D01*
X181785187Y-82726072D01*
X181804947Y-82474999D01*
X181785187Y-82223927D01*
X181726396Y-81979043D01*
X181630019Y-81746368D01*
X181498432Y-81531638D01*
X181498430Y-81531636D01*
X181497732Y-81530819D01*
X181497731Y-81530819D01*
X180848517Y-82180034D01*
X180787194Y-82213519D01*
X180717502Y-82208535D01*
X180661569Y-82166663D01*
X180658486Y-82161750D01*
X180658451Y-82161775D01*
X180653558Y-82154843D01*
X180550360Y-82044346D01*
X180550358Y-82044345D01*
X180515300Y-82023026D01*
X180468248Y-81971375D01*
X180456590Y-81902485D01*
X180484027Y-81838228D01*
X180492047Y-81829397D01*
X180988522Y-81332922D01*
X181011407Y-81314879D01*
X181143659Y-81233836D01*
X181335224Y-81070224D01*
X181498836Y-80878659D01*
X181630466Y-80663859D01*
X181726873Y-80431111D01*
X181785683Y-80186148D01*
X181805449Y-79935000D01*
X181785683Y-79683852D01*
X181726873Y-79438889D01*
X181726872Y-79438888D01*
X181630466Y-79206140D01*
X181498839Y-78991346D01*
X181498838Y-78991343D01*
X181335224Y-78799776D01*
X181335223Y-78799776D01*
X181287819Y-78759289D01*
X181249627Y-78700784D01*
X181249128Y-78630916D01*
X181286482Y-78571870D01*
X181287756Y-78570764D01*
X181335224Y-78530224D01*
X181498836Y-78338659D01*
X181630466Y-78123859D01*
X181726873Y-77891111D01*
X181785683Y-77646148D01*
X181805449Y-77395000D01*
X181785683Y-77143852D01*
X181726873Y-76898889D01*
X181697425Y-76827795D01*
X181630466Y-76666140D01*
X181498839Y-76451346D01*
X181498838Y-76451343D01*
X181423077Y-76362639D01*
X181335224Y-76259776D01*
X181173641Y-76121771D01*
X181143656Y-76096161D01*
X181143653Y-76096160D01*
X180928859Y-75964533D01*
X180696110Y-75868126D01*
X180451151Y-75809317D01*
X180200000Y-75789551D01*
X179948848Y-75809317D01*
X179703889Y-75868126D01*
X179471140Y-75964533D01*
X179256346Y-76096160D01*
X179256343Y-76096161D01*
X179064776Y-76259776D01*
X178901161Y-76451343D01*
X178901160Y-76451346D01*
X178769533Y-76666141D01*
X178769532Y-76666143D01*
X178758428Y-76692952D01*
X178714588Y-76747356D01*
X178648294Y-76769421D01*
X178643867Y-76769500D01*
X175124840Y-76769500D01*
X175057801Y-76749815D01*
X175043081Y-76738728D01*
X175027436Y-76725008D01*
X174942454Y-76650480D01*
X174942455Y-76650480D01*
X174942452Y-76650478D01*
X174702613Y-76490223D01*
X174702606Y-76490219D01*
X174443905Y-76362642D01*
X174170760Y-76269921D01*
X174170754Y-76269919D01*
X174170753Y-76269919D01*
X174170751Y-76269918D01*
X174170745Y-76269917D01*
X173887849Y-76213646D01*
X173887839Y-76213644D01*
X173600000Y-76194778D01*
X173312161Y-76213644D01*
X173312155Y-76213645D01*
X173312150Y-76213646D01*
X173029254Y-76269917D01*
X173029239Y-76269921D01*
X172756102Y-76362639D01*
X172756087Y-76362646D01*
X172628933Y-76425351D01*
X172560101Y-76437346D01*
X172495710Y-76410224D01*
X172486409Y-76401819D01*
X171800233Y-75715643D01*
X171100803Y-75016212D01*
X171090980Y-75003950D01*
X171090759Y-75004134D01*
X171085786Y-74998123D01*
X171035364Y-74950773D01*
X171022772Y-74938181D01*
X171014475Y-74929883D01*
X171008986Y-74925625D01*
X171004561Y-74921847D01*
X170970582Y-74889938D01*
X170970580Y-74889936D01*
X170970577Y-74889935D01*
X170953029Y-74880288D01*
X170936763Y-74869604D01*
X170920933Y-74857325D01*
X170878168Y-74838818D01*
X170872922Y-74836248D01*
X170832093Y-74813803D01*
X170832092Y-74813802D01*
X170812693Y-74808822D01*
X170794281Y-74802518D01*
X170775898Y-74794562D01*
X170775892Y-74794560D01*
X170729874Y-74787272D01*
X170724152Y-74786087D01*
X170679021Y-74774500D01*
X170679019Y-74774500D01*
X170658984Y-74774500D01*
X170639586Y-74772973D01*
X170632162Y-74771797D01*
X170619805Y-74769840D01*
X170619804Y-74769840D01*
X170573416Y-74774225D01*
X170567578Y-74774500D01*
X169910453Y-74774500D01*
X169843414Y-74754815D01*
X169822772Y-74738181D01*
X169255803Y-74171212D01*
X169245980Y-74158950D01*
X169245759Y-74159134D01*
X169240786Y-74153123D01*
X169222159Y-74135631D01*
X169190364Y-74105773D01*
X169179919Y-74095328D01*
X169169475Y-74084883D01*
X169163986Y-74080625D01*
X169159561Y-74076847D01*
X169125582Y-74044938D01*
X169125580Y-74044936D01*
X169125577Y-74044935D01*
X169108029Y-74035288D01*
X169091763Y-74024604D01*
X169075933Y-74012325D01*
X169033168Y-73993818D01*
X169027922Y-73991248D01*
X168987093Y-73968803D01*
X168987092Y-73968802D01*
X168967693Y-73963822D01*
X168949281Y-73957518D01*
X168930898Y-73949562D01*
X168930892Y-73949560D01*
X168884874Y-73942272D01*
X168879152Y-73941087D01*
X168834021Y-73929500D01*
X168834019Y-73929500D01*
X168813984Y-73929500D01*
X168794586Y-73927973D01*
X168787162Y-73926797D01*
X168774805Y-73924840D01*
X168774804Y-73924840D01*
X168728416Y-73929225D01*
X168722578Y-73929500D01*
X165075499Y-73929500D01*
X165008460Y-73909815D01*
X164962705Y-73857011D01*
X164951499Y-73805500D01*
X164951499Y-73707029D01*
X164951498Y-73707023D01*
X164951497Y-73707016D01*
X164945091Y-73647417D01*
X164894796Y-73512569D01*
X164894795Y-73512568D01*
X164894793Y-73512564D01*
X164808547Y-73397355D01*
X164808544Y-73397352D01*
X164693335Y-73311106D01*
X164693328Y-73311102D01*
X164558482Y-73260808D01*
X164558483Y-73260808D01*
X164498883Y-73254401D01*
X164498881Y-73254400D01*
X164498873Y-73254400D01*
X164498864Y-73254400D01*
X161101129Y-73254400D01*
X161101123Y-73254401D01*
X161041516Y-73260808D01*
X160906671Y-73311102D01*
X160906664Y-73311106D01*
X160791455Y-73397352D01*
X160791452Y-73397355D01*
X160705206Y-73512564D01*
X160705202Y-73512571D01*
X160654908Y-73647417D01*
X160648501Y-73707016D01*
X160648501Y-73707023D01*
X160648500Y-73707035D01*
X160648500Y-73805500D01*
X160628815Y-73872539D01*
X160576011Y-73918294D01*
X160524500Y-73929500D01*
X156965237Y-73929500D01*
X156949620Y-73927776D01*
X156949593Y-73928062D01*
X156941831Y-73927327D01*
X156872703Y-73929500D01*
X156843150Y-73929500D01*
X156842429Y-73929590D01*
X156836257Y-73930369D01*
X156830445Y-73930826D01*
X156783878Y-73932290D01*
X156783867Y-73932292D01*
X156764634Y-73937879D01*
X156745594Y-73941822D01*
X156725717Y-73944334D01*
X156725710Y-73944335D01*
X156725708Y-73944336D01*
X156725706Y-73944336D01*
X156725705Y-73944337D01*
X156682368Y-73961494D01*
X156676842Y-73963386D01*
X156632111Y-73976382D01*
X156632108Y-73976383D01*
X156614863Y-73986581D01*
X156597401Y-73995135D01*
X156578772Y-74002511D01*
X156578767Y-74002513D01*
X156541064Y-74029906D01*
X156536182Y-74033112D01*
X156496080Y-74056828D01*
X156481908Y-74071000D01*
X156467123Y-74083628D01*
X156450912Y-74095407D01*
X156421209Y-74131310D01*
X156417277Y-74135631D01*
X155614726Y-74938181D01*
X155553403Y-74971666D01*
X155527045Y-74974500D01*
X154849998Y-74974500D01*
X154849980Y-74974501D01*
X154747203Y-74985000D01*
X154747200Y-74985001D01*
X154580668Y-75040185D01*
X154580663Y-75040187D01*
X154431342Y-75132289D01*
X154307288Y-75256343D01*
X154307283Y-75256349D01*
X154305241Y-75259661D01*
X154303247Y-75261453D01*
X154302807Y-75262011D01*
X154302711Y-75261935D01*
X154253291Y-75306383D01*
X154184328Y-75317602D01*
X154120247Y-75289755D01*
X154094168Y-75259656D01*
X154092319Y-75256659D01*
X154092316Y-75256655D01*
X153968345Y-75132684D01*
X153819124Y-75040643D01*
X153819119Y-75040641D01*
X153652697Y-74985494D01*
X153652690Y-74985493D01*
X153549986Y-74975000D01*
X153412500Y-74975000D01*
X153412500Y-77424999D01*
X153549972Y-77424999D01*
X153549986Y-77424998D01*
X153652697Y-77414505D01*
X153819119Y-77359358D01*
X153819124Y-77359356D01*
X153968345Y-77267315D01*
X154092318Y-77143342D01*
X154094165Y-77140348D01*
X154095969Y-77138724D01*
X154096798Y-77137677D01*
X154096976Y-77137818D01*
X154146110Y-77093621D01*
X154215073Y-77082396D01*
X154279156Y-77110236D01*
X154305243Y-77140341D01*
X154307288Y-77143656D01*
X154431344Y-77267712D01*
X154553097Y-77342809D01*
X154599821Y-77394755D01*
X154612000Y-77448347D01*
X154612000Y-77751652D01*
X154592315Y-77818691D01*
X154553098Y-77857189D01*
X154498105Y-77891110D01*
X154431342Y-77932289D01*
X154307288Y-78056343D01*
X154307283Y-78056349D01*
X154305241Y-78059661D01*
X154303247Y-78061453D01*
X154302807Y-78062011D01*
X154302711Y-78061935D01*
X154253291Y-78106383D01*
X154184328Y-78117602D01*
X154120247Y-78089755D01*
X154094168Y-78059656D01*
X154092319Y-78056659D01*
X154092316Y-78056655D01*
X153968345Y-77932684D01*
X153819124Y-77840643D01*
X153819119Y-77840641D01*
X153652697Y-77785494D01*
X153652690Y-77785493D01*
X153549986Y-77775000D01*
X153412500Y-77775000D01*
X153412500Y-80224999D01*
X153549972Y-80224999D01*
X153549986Y-80224998D01*
X153652697Y-80214505D01*
X153819119Y-80159358D01*
X153819124Y-80159356D01*
X153968345Y-80067315D01*
X154092318Y-79943342D01*
X154094165Y-79940348D01*
X154095969Y-79938724D01*
X154096798Y-79937677D01*
X154096976Y-79937818D01*
X154146110Y-79893621D01*
X154215073Y-79882396D01*
X154279156Y-79910236D01*
X154305243Y-79940341D01*
X154307288Y-79943656D01*
X154431344Y-80067712D01*
X154580666Y-80159814D01*
X154747203Y-80214999D01*
X154849991Y-80225500D01*
X155625008Y-80225499D01*
X155625016Y-80225498D01*
X155625019Y-80225498D01*
X155681302Y-80219748D01*
X155727797Y-80214999D01*
X155894334Y-80159814D01*
X156043656Y-80067712D01*
X156167712Y-79943656D01*
X156259814Y-79794334D01*
X156314999Y-79627797D01*
X156325500Y-79525009D01*
X156325499Y-78474992D01*
X156317838Y-78400000D01*
X156314999Y-78372203D01*
X156314998Y-78372200D01*
X156259814Y-78205666D01*
X156167712Y-78056344D01*
X156043656Y-77932288D01*
X155921902Y-77857190D01*
X155875179Y-77805243D01*
X155863000Y-77751652D01*
X155863000Y-77448347D01*
X155882685Y-77381308D01*
X155921901Y-77342810D01*
X156043656Y-77267712D01*
X156167712Y-77143656D01*
X156259814Y-76994334D01*
X156314999Y-76827797D01*
X156325500Y-76725009D01*
X156325499Y-76047951D01*
X156345183Y-75980913D01*
X156361813Y-75960276D01*
X157105271Y-75216819D01*
X157166595Y-75183334D01*
X157192953Y-75180500D01*
X157620638Y-75180500D01*
X157687677Y-75200185D01*
X157733432Y-75252989D01*
X157743376Y-75322147D01*
X157714351Y-75385703D01*
X157708319Y-75392181D01*
X157694600Y-75405900D01*
X157694600Y-82310647D01*
X157674915Y-82377686D01*
X157622111Y-82423441D01*
X157552953Y-82433385D01*
X157489397Y-82404360D01*
X157482919Y-82398328D01*
X156861818Y-81777227D01*
X156828333Y-81715904D01*
X156825499Y-81689546D01*
X156825499Y-81374998D01*
X156825498Y-81374981D01*
X156814999Y-81272203D01*
X156814998Y-81272200D01*
X156759814Y-81105666D01*
X156667712Y-80956344D01*
X156543656Y-80832288D01*
X156394334Y-80740186D01*
X156227797Y-80685001D01*
X156227795Y-80685000D01*
X156125010Y-80674500D01*
X155074998Y-80674500D01*
X155074980Y-80674501D01*
X154972203Y-80685000D01*
X154972200Y-80685001D01*
X154805668Y-80740185D01*
X154805663Y-80740187D01*
X154656342Y-80832289D01*
X154532289Y-80956342D01*
X154440187Y-81105663D01*
X154440185Y-81105666D01*
X154440186Y-81105666D01*
X154391693Y-81252005D01*
X154351923Y-81309449D01*
X154287407Y-81336272D01*
X154273989Y-81337000D01*
X153072952Y-81337000D01*
X153005913Y-81317315D01*
X152985271Y-81300681D01*
X151560660Y-79876069D01*
X151527175Y-79814746D01*
X151532159Y-79745054D01*
X151560658Y-79700708D01*
X151592712Y-79668656D01*
X151684814Y-79519334D01*
X151739999Y-79352797D01*
X151750500Y-79250009D01*
X151750500Y-79250000D01*
X152075001Y-79250000D01*
X152075001Y-79524986D01*
X152085494Y-79627697D01*
X152140641Y-79794119D01*
X152140643Y-79794124D01*
X152232684Y-79943345D01*
X152356654Y-80067315D01*
X152505875Y-80159356D01*
X152505880Y-80159358D01*
X152672302Y-80214505D01*
X152672309Y-80214506D01*
X152775019Y-80224999D01*
X152912499Y-80224999D01*
X152912500Y-80224998D01*
X152912500Y-79250000D01*
X152075001Y-79250000D01*
X151750500Y-79250000D01*
X151750500Y-78750000D01*
X152075000Y-78750000D01*
X152912500Y-78750000D01*
X152912500Y-77775000D01*
X152775027Y-77775000D01*
X152775012Y-77775001D01*
X152672302Y-77785494D01*
X152505880Y-77840641D01*
X152505875Y-77840643D01*
X152356654Y-77932684D01*
X152232684Y-78056654D01*
X152140643Y-78205875D01*
X152140641Y-78205880D01*
X152085494Y-78372302D01*
X152085493Y-78372309D01*
X152075000Y-78475013D01*
X152075000Y-78750000D01*
X151750500Y-78750000D01*
X151750499Y-76450000D01*
X152075001Y-76450000D01*
X152075001Y-76724986D01*
X152085494Y-76827697D01*
X152140641Y-76994119D01*
X152140643Y-76994124D01*
X152232684Y-77143345D01*
X152356654Y-77267315D01*
X152505875Y-77359356D01*
X152505880Y-77359358D01*
X152672302Y-77414505D01*
X152672309Y-77414506D01*
X152775019Y-77424999D01*
X152912499Y-77424999D01*
X152912500Y-77424998D01*
X152912500Y-76450000D01*
X152075001Y-76450000D01*
X151750499Y-76450000D01*
X151750499Y-76349992D01*
X151739999Y-76247203D01*
X151684814Y-76080666D01*
X151604219Y-75950000D01*
X152075000Y-75950000D01*
X152912500Y-75950000D01*
X152912500Y-74975000D01*
X152775027Y-74975000D01*
X152775012Y-74975001D01*
X152672302Y-74985494D01*
X152505880Y-75040641D01*
X152505875Y-75040643D01*
X152356654Y-75132684D01*
X152232684Y-75256654D01*
X152140643Y-75405875D01*
X152140641Y-75405880D01*
X152085494Y-75572302D01*
X152085493Y-75572309D01*
X152075000Y-75675013D01*
X152075000Y-75950000D01*
X151604219Y-75950000D01*
X151592712Y-75931344D01*
X151468656Y-75807288D01*
X151319334Y-75715186D01*
X151152797Y-75660001D01*
X151152795Y-75660000D01*
X151050010Y-75649500D01*
X148949998Y-75649500D01*
X148949981Y-75649501D01*
X148847203Y-75660000D01*
X148847200Y-75660001D01*
X148680668Y-75715185D01*
X148680663Y-75715187D01*
X148531342Y-75807289D01*
X148407289Y-75931342D01*
X148315187Y-76080663D01*
X148315185Y-76080668D01*
X148303564Y-76115739D01*
X148260001Y-76247203D01*
X148260001Y-76247204D01*
X148260000Y-76247204D01*
X148249500Y-76349983D01*
X148249500Y-76349996D01*
X144949996Y-76349996D01*
X144939505Y-76247302D01*
X144884358Y-76080880D01*
X144884356Y-76080875D01*
X144792315Y-75931654D01*
X144668345Y-75807684D01*
X144519124Y-75715643D01*
X144519119Y-75715641D01*
X144352697Y-75660494D01*
X144352690Y-75660493D01*
X144249986Y-75650000D01*
X143450000Y-75650000D01*
X142950000Y-75650000D01*
X142150028Y-75650000D01*
X142150012Y-75650001D01*
X142047302Y-75660494D01*
X141880880Y-75715641D01*
X141880875Y-75715643D01*
X141731654Y-75807684D01*
X141607684Y-75931654D01*
X141515643Y-76080875D01*
X141515641Y-76080880D01*
X141460494Y-76247302D01*
X141460493Y-76247309D01*
X141450000Y-76350013D01*
X141450000Y-77550000D01*
X124600000Y-77550000D01*
X124600000Y-72324000D01*
X124619685Y-72256961D01*
X124672489Y-72211206D01*
X124724000Y-72200000D01*
X183676000Y-72200000D01*
X183743039Y-72219685D01*
G37*
%TD.AperFunction*%
%TD*%
M02*
