%TF.GenerationSoftware,KiCad,Pcbnew,7.0.7*%
%TF.CreationDate,2024-09-29T13:33:55+02:00*%
%TF.ProjectId,DC_step_down_24V-3_3V,44435f73-7465-4705-9f64-6f776e5f3234,rev?*%
%TF.SameCoordinates,Original*%
%TF.FileFunction,Soldermask,Top*%
%TF.FilePolarity,Negative*%
%FSLAX46Y46*%
G04 Gerber Fmt 4.6, Leading zero omitted, Abs format (unit mm)*
G04 Created by KiCad (PCBNEW 7.0.7) date 2024-09-29 13:33:55*
%MOMM*%
%LPD*%
G01*
G04 APERTURE LIST*
G04 Aperture macros list*
%AMRoundRect*
0 Rectangle with rounded corners*
0 $1 Rounding radius*
0 $2 $3 $4 $5 $6 $7 $8 $9 X,Y pos of 4 corners*
0 Add a 4 corners polygon primitive as box body*
4,1,4,$2,$3,$4,$5,$6,$7,$8,$9,$2,$3,0*
0 Add four circle primitives for the rounded corners*
1,1,$1+$1,$2,$3*
1,1,$1+$1,$4,$5*
1,1,$1+$1,$6,$7*
1,1,$1+$1,$8,$9*
0 Add four rect primitives between the rounded corners*
20,1,$1+$1,$2,$3,$4,$5,0*
20,1,$1+$1,$4,$5,$6,$7,0*
20,1,$1+$1,$6,$7,$8,$9,0*
20,1,$1+$1,$8,$9,$2,$3,0*%
G04 Aperture macros list end*
%ADD10RoundRect,0.250000X0.475000X-0.337500X0.475000X0.337500X-0.475000X0.337500X-0.475000X-0.337500X0*%
%ADD11R,3.302000X1.600200*%
%ADD12RoundRect,0.250000X-0.475000X0.337500X-0.475000X-0.337500X0.475000X-0.337500X0.475000X0.337500X0*%
%ADD13RoundRect,0.250000X-0.450000X0.350000X-0.450000X-0.350000X0.450000X-0.350000X0.450000X0.350000X0*%
%ADD14RoundRect,0.250000X-0.337500X-0.475000X0.337500X-0.475000X0.337500X0.475000X-0.337500X0.475000X0*%
%ADD15RoundRect,0.250000X-1.000000X1.400000X-1.000000X-1.400000X1.000000X-1.400000X1.000000X1.400000X0*%
%ADD16RoundRect,0.250000X0.450000X-0.350000X0.450000X0.350000X-0.450000X0.350000X-0.450000X-0.350000X0*%
%ADD17C,3.400000*%
%ADD18C,1.100000*%
%ADD19R,2.200000X2.200000*%
%ADD20C,2.200000*%
%ADD21RoundRect,0.250000X0.337500X0.475000X-0.337500X0.475000X-0.337500X-0.475000X0.337500X-0.475000X0*%
%ADD22RoundRect,0.177000X-0.910000X-0.225000X0.910000X-0.225000X0.910000X0.225000X-0.910000X0.225000X0*%
G04 APERTURE END LIST*
D10*
%TO.C,C1*%
X138600000Y-85837500D03*
X138600000Y-83762500D03*
%TD*%
D11*
%TO.C,L1*%
X162800000Y-83445000D03*
X162800000Y-74555000D03*
%TD*%
D12*
%TO.C,C5*%
X155600000Y-81762500D03*
X155600000Y-83837500D03*
%TD*%
D13*
%TO.C,R1*%
X143400000Y-88200000D03*
X143400000Y-90200000D03*
%TD*%
D12*
%TO.C,C4*%
X145800000Y-92362500D03*
X145800000Y-94437500D03*
%TD*%
D14*
%TO.C,C8*%
X155562500Y-91000000D03*
X157637500Y-91000000D03*
%TD*%
D15*
%TO.C,D1*%
X150000000Y-77800000D03*
X143200000Y-77800000D03*
%TD*%
D16*
%TO.C,R5*%
X161200000Y-86400000D03*
X161200000Y-88400000D03*
%TD*%
D10*
%TO.C,C9*%
X155600000Y-88437500D03*
X155600000Y-86362500D03*
%TD*%
D17*
%TO.C,TP1_GND1*%
X134400000Y-82600000D03*
%TD*%
D10*
%TO.C,C3*%
X143400000Y-85837500D03*
X143400000Y-83762500D03*
%TD*%
%TO.C,C2*%
X141000000Y-85837500D03*
X141000000Y-83762500D03*
%TD*%
D17*
%TO.C,TP3_GND1*%
X173600000Y-84600000D03*
%TD*%
D18*
%TO.C,J2*%
X125860000Y-83330000D03*
X125860000Y-85870000D03*
D19*
X128400000Y-83330000D03*
D20*
X128400000Y-85870000D03*
%TD*%
D21*
%TO.C,C7*%
X155237500Y-76200000D03*
X153162500Y-76200000D03*
%TD*%
D19*
%TO.C,J1*%
X180200000Y-85015000D03*
D20*
X180200000Y-82475000D03*
X180200000Y-79935000D03*
X180200000Y-77395000D03*
%TD*%
D17*
%TO.C,TP2_24V_in1*%
X134400000Y-87800000D03*
%TD*%
D16*
%TO.C,R6*%
X158400000Y-88400000D03*
X158400000Y-86400000D03*
%TD*%
D22*
%TO.C,U1*%
X147130000Y-84695000D03*
X147130000Y-85965000D03*
X147130000Y-87235000D03*
X147130000Y-88505000D03*
X152070000Y-88505000D03*
X152070000Y-87235000D03*
X152070000Y-85965000D03*
X152070000Y-84695000D03*
%TD*%
D13*
%TO.C,R4*%
X164000000Y-86400000D03*
X164000000Y-88400000D03*
%TD*%
%TO.C,R3*%
X166800000Y-86400000D03*
X166800000Y-88400000D03*
%TD*%
D17*
%TO.C,TP1_3V3_out1*%
X173600000Y-78400000D03*
%TD*%
D21*
%TO.C,C6*%
X155237500Y-79000000D03*
X153162500Y-79000000D03*
%TD*%
D13*
%TO.C,R2*%
X143400000Y-92400000D03*
X143400000Y-94400000D03*
%TD*%
M02*
